<svg class="img-fluid" id="outputsvg" xmlns="http://www.w3.org/2000/svg"
  style="transform: none; transform-origin: 50% 50%; cursor: move;" width="509" height="339" viewBox="0 0 5090 3390">
  <g id="l1Ecdn2A2SGhMDbtjzn547o" fill="none" stroke="rgb(33,19,13)" stroke-width="10" style="transform: none;">
    <g>
      <path id="pn3sWXrYL"
        d="M0 3173 l0 -218 117 -2 c77 -1 113 1 103 7 -11 7 -4 9 25 9 35 -1 37 -2 15 -9 -22 -7 -21 -8 13 -9 27 -1 37 3 37 14 0 21 58 20 100 -2 20 -9 35 -12 37 -6 2 5 17 7 33 5 17 -2 44 1 60 8 21 9 34 9 43 2 6 -5 30 -9 52 -7 22 2 46 4 53 4 7 1 11 5 8 10 -9 14 54 25 67 12 8 -8 3 -11 -19 -12 -24 -2 -22 -3 11 -8 22 -3 43 -3 46 2 11 16 76 28 149 28 86 0 123 7 113 22 -4 7 8 8 34 5 22 -3 46 -2 52 2 7 4 -27 10 -76 14 -48 4 -106 10 -127 13 -26 4 -37 3 -33 -4 9 -14 -63 -24 -137 -18 -58 5 -91 15 -47 15 12 0 20 4 16 9 -3 5 -22 8 -43 5 -26 -3 -31 -2 -18 4 38 17 -6 25 -127 24 -91 0 -124 3 -134 14 -12 12 0 14 90 14 57 0 107 -3 110 -6 11 -11 170 -14 182 -4 6 5 35 10 64 11 28 1 54 6 57 11 3 4 20 8 37 9 l32 1 -32 14 c-18 8 -33 16 -33 19 0 3 48 3 108 0 118 -6 177 9 76 19 -32 3 -78 11 -102 16 -23 6 -52 10 -65 11 -17 0 -15 3 13 14 25 10 29 14 15 15 -17 1 -17 3 5 11 14 6 62 9 108 7 138 -5 98 14 -68 33 -165 19 -237 33 -233 47 4 9 -37 12 -180 12 -193 0 -268 7 -232 21 11 4 -69 8 -177 8 l-198 1 0 -217z m454 135 c12 0 -9 -4 -46 -7 -37 -3 -93 -4 -125 -1 l-58 4 60 7 c33 4 80 5 104 3 24 -2 53 -5 65 -6z m209 -25 c-13 -2 -33 -2 -45 0 -13 2 -3 4 22 4 25 0 35 -2 23 -4z m200 -100 c-13 -2 -33 -2 -45 0 -13 2 -3 4 22 4 25 0 35 -2 23 -4z m-648 -83 c4 -6 -7 -10 -27 -10 -25 0 -29 3 -18 10 19 13 37 13 45 0z m115 -9 c0 -22 -55 -27 -64 -6 -4 12 3 15 29 15 19 0 35 -4 35 -9z m280 -31 c0 -5 -9 -10 -20 -10 -11 0 -20 5 -20 10 0 6 9 10 20 10 11 0 20 -4 20 -10z">
      </path>
      <path id="psHd1CZ9L"
        d="M825 3380 c173 -8 165 -7 145 -20 -13 -8 -12 -10 3 -10 9 0 17 4 17 9 0 6 10 7 23 4 12 -4 60 -8 107 -9 57 -2 75 0 55 6 -26 6 -21 8 30 10 l60 3 -75 7 c-41 4 -174 7 -295 7 l-220 -1 150 -6z">
      </path>
      <path id="pQTEthIiD" d="M1435 3331 c11 -5 68 -5 125 -1 l105 7 -125 1 c-74 0 -117 -3 -105 -7z"></path>
      <path id="priWEDoWX" d="M1172 3248 c-9 -4 24 -6 73 -6 92 1 91 5 -3 10 -29 2 -61 0 -70 -4z"></path>
      <path id="pLfdW2hkE" d="M1058 3243 c12 -2 30 -2 40 0 9 3 -1 5 -23 4 -22 0 -30 -2 -17 -4z"></path>
      <path id="p1HXm8ybye"
        d="M953 3114 c4 -4 -5 -13 -20 -20 -28 -12 -28 -12 15 -13 46 -1 55 12 20 30 -13 6 -20 8 -15 3z"></path>
      <path id="pMa6LNDY9" d="M5019 3051 c12 -8 51 -4 51 5 0 2 -15 4 -32 4 -23 0 -29 -3 -19 -9z"></path>
      <path id="p15zEtPqm4" d="M4840 3020 c0 -5 10 -10 23 -10 18 0 19 2 7 10 -19 13 -30 13 -30 0z"></path>
      <path id="pW8rGRqSM"
        d="M4857 2988 c-7 -4 1 -8 17 -8 45 0 27 -7 -33 -14 -60 -7 -81 -16 -36 -16 28 0 28 -1 9 -15 -17 -13 -3 -14 129 -15 l147 0 0 41 0 41 -111 -4 c-61 -1 -116 -6 -122 -10z">
      </path>
      <path id="p118IPq50r"
        d="M4704 2950 c-5 -4 -18 -10 -29 -13 -14 -3 -11 -5 10 -6 37 -1 64 13 42 22 -8 3 -18 2 -23 -3z"></path>
      <path id="pMzUuoLcn" d="M1904 2847 c-4 -14 -1 -25 11 -33 23 -17 45 -7 45 21 0 31 -47 41 -56 12z"></path>
      <path id="piLOuvZ9G"
        d="M4855 2843 c-124 -7 -716 -25 -1090 -33 -461 -9 -662 -19 -644 -31 7 -4 17 -5 21 -3 5 3 18 2 31 -3 34 -12 -89 -21 -317 -22 -123 -1 -205 -6 -212 -12 -8 -7 -38 -8 -81 -4 -37 4 -210 9 -383 11 -232 3 -316 8 -322 17 -6 9 -8 9 -8 -1 0 -11 -163 -13 -925 -10 l-925 3 2 -430 3 -430 25 4 c14 1 28 8 32 15 6 8 10 7 17 -3 7 -10 13 -11 30 -1 12 6 36 12 53 12 21 1 32 7 36 20 4 18 16 22 65 18 21 -1 30 4 34 19 4 17 13 21 44 21 22 0 39 5 39 10 0 6 23 10 50 10 28 0 50 4 50 9 0 5 9 13 20 16 11 3 20 11 20 16 0 16 48 59 65 59 8 0 15 5 15 10 0 6 9 10 19 10 11 0 23 5 27 12 5 8 9 6 14 -6 6 -17 7 -17 22 -2 22 22 26 20 30 -11 4 -39 28 -42 28 -4 0 17 5 31 10 31 6 0 10 8 8 18 -2 9 3 16 9 15 7 -2 13 2 13 8 0 19 28 39 56 39 15 0 44 5 66 12 39 11 39 12 16 24 -22 12 -21 13 20 20 23 3 42 10 42 15 0 5 19 10 43 11 40 1 40 2 -13 8 l-55 7 80 3 c44 1 94 6 110 10 27 7 24 8 -20 10 -81 3 -101 18 -25 19 46 1 61 4 50 11 -12 8 -11 10 8 10 15 0 22 6 22 20 0 16 7 20 38 20 26 0 42 6 52 20 8 12 26 20 42 20 15 0 28 5 28 10 0 6 19 10 43 10 43 0 97 18 97 33 0 4 14 7 30 7 17 0 30 4 30 9 0 6 52 8 122 6 122 -3 151 2 174 33 7 10 25 13 62 11 30 -2 52 0 52 6 0 6 5 2 11 -7 13 -24 25 -23 32 2 4 15 14 20 36 20 18 0 48 7 68 15 26 11 52 13 97 8 33 -4 127 -7 208 -7 l147 0 6 -28 c7 -30 14 -33 145 -62 79 -17 202 -21 229 -6 11 5 51 13 88 16 197 15 221 21 284 66 10 7 24 8 35 3 24 -10 42 -10 76 -1 42 12 50 5 32 -29 -10 -20 -12 -31 -4 -33 6 -2 15 -15 20 -28 8 -20 14 -23 40 -18 18 4 36 1 45 -6 13 -10 15 -9 15 8 0 27 18 38 27 16 4 -10 2 -19 -5 -22 -16 -5 -15 -22 1 -22 7 0 23 -9 35 -20 23 -22 42 -26 42 -10 0 6 11 10 25 10 27 0 32 18 15 51 -9 15 -7 19 6 19 13 0 14 3 4 15 -10 13 -9 15 9 15 12 0 19 -4 16 -10 -3 -6 1 -7 9 -4 10 4 16 1 16 -8 0 -19 27 -19 35 0 3 10 0 12 -10 8 -9 -3 -15 0 -15 9 0 18 54 29 79 15 16 -8 28 -7 51 5 39 20 63 20 133 1 32 -9 63 -13 69 -10 7 4 8 2 4 -4 -12 -19 22 -14 52 7 15 11 43 21 62 23 32 3 35 1 38 -27 2 -16 10 -34 18 -38 8 -4 14 -17 14 -27 0 -26 30 -40 72 -33 21 3 38 1 42 -6 11 -17 29 -13 22 4 -3 8 0 16 7 16 7 1 23 3 37 4 14 2 31 -2 38 -8 9 -7 16 -5 25 7 11 15 16 15 61 -2 27 -11 53 -28 59 -38 12 -22 27 -34 42 -33 6 0 4 3 -2 6 -7 2 -13 10 -13 16 1 7 9 2 19 -10 20 -24 41 -30 41 -13 0 18 18 11 25 -9 7 -22 20 -22 55 1 19 13 41 16 90 13 95 -5 130 -15 163 -43 16 -14 17 -3 17 226 l0 242 -92 -2 c-51 -1 -115 -3 -143 -5z m-1260 -263 c11 -5 14 -9 7 -9 -7 -1 -10 -5 -7 -11 10 -17 0 -11 -18 10 -18 21 -14 24 18 10z">
      </path>
    </g>
  </g>
  <g id="l2WoisveqjnS8om2hWYinkz" fill="none" stroke="rgb(82,51,32)" stroke-width="10" style="transform: none;">
    <g>
      <path id="plEbwiFJN"
        d="M375 3382 c-16 -8 -15 -10 14 -15 51 -11 140 -8 163 4 15 8 19 8 14 0 -5 -8 27 -11 109 -11 89 0 116 -3 112 -12 -4 -14 68 -28 233 -47 166 -19 206 -38 68 -33 -46 2 -94 -1 -108 -7 -22 -8 -22 -10 -5 -11 14 -1 10 -5 -15 -15 -28 -11 -30 -14 -13 -14 13 -1 42 -5 65 -11 24 -5 70 -13 102 -16 101 -10 42 -25 -76 -19 -60 3 -108 3 -108 0 0 -3 15 -11 33 -19 l32 -14 -32 -1 c-17 -1 -34 -5 -37 -9 -3 -5 -29 -10 -57 -11 -29 -1 -58 -6 -64 -11 -12 -10 -171 -7 -182 4 -3 3 -53 6 -110 6 -90 0 -102 -2 -90 -14 10 -11 43 -14 134 -14 121 1 165 -7 127 -24 -13 -6 -8 -7 18 -4 21 3 40 0 43 -5 4 -5 -4 -9 -16 -9 -44 0 -11 -10 47 -15 74 -6 146 4 137 18 -4 7 7 8 33 4 21 -3 79 -9 127 -13 49 -4 83 -10 76 -14 -6 -4 -30 -5 -52 -2 -26 3 -38 2 -34 -5 10 -15 -27 -22 -113 -22 -73 0 -138 -12 -149 -28 -3 -5 -24 -5 -46 -2 -33 5 -35 6 -10 8 21 1 26 4 18 12 -13 13 -76 2 -67 -12 3 -5 -1 -9 -8 -10 -7 0 -31 -2 -53 -4 -22 -2 -46 2 -52 7 -9 7 -22 7 -43 -2 -16 -7 -43 -10 -60 -8 -16 2 -31 0 -33 -5 -2 -6 -17 -3 -37 6 -42 22 -100 23 -100 2 0 -11 -10 -15 -37 -14 -34 1 -35 2 -13 9 22 7 20 8 -15 9 -30 0 -36 -2 -25 -9 10 -7 -18 -9 -89 -6 -57 2 -110 2 -117 -1 -8 -3 -14 -16 -14 -29 l0 -23 113 4 c90 3 328 5 372 3 31 -1 958 15 1000 18 28 2 91 3 142 3 53 0 94 4 98 11 3 5 20 10 36 10 26 0 29 3 24 20 -6 18 -2 20 44 20 27 0 52 4 56 9 3 6 -11 10 -32 9 -21 0 -51 5 -66 11 -16 6 -40 11 -55 12 -22 1 -19 3 13 11 22 5 51 7 65 5 14 -2 36 -1 50 3 15 4 -22 10 -99 15 -76 4 -118 11 -110 16 8 5 30 9 49 10 32 1 33 2 10 9 -24 8 -24 8 -2 9 12 1 22 7 22 16 0 11 12 15 44 15 56 0 68 16 20 25 -48 9 -38 15 32 21 70 6 84 14 23 14 -74 0 -121 11 -115 26 4 11 -7 14 -49 14 -30 0 -55 5 -55 10 0 6 10 10 23 10 51 0 380 30 385 35 3 3 -33 6 -79 6 -88 1 -170 14 -119 19 39 3 -117 28 -195 31 l-70 2 60 7 c53 6 55 7 20 9 -22 2 -53 5 -70 8 -16 2 -127 6 -245 7 -118 2 -183 0 -145 -4 l70 -6 -60 -3 c-51 -3 -56 -5 -30 -11 20 -6 2 -8 -55 -6 -47 1 -95 5 -107 9 -13 3 -23 2 -23 -4 0 -5 -8 -9 -17 -9 -14 0 -15 2 -5 9 10 6 4 10 -20 14 -57 10 -552 17 -573 9z m1185 -52 c-57 -4 -114 -4 -125 1 -12 4 31 7 105 7 l125 -1 -105 -7z m22 -47 c-40 -2 -103 -2 -140 0 -37 2 -4 3 73 3 77 0 107 -2 67 -3z m-267 -37 c11 -2 -20 -4 -70 -4 -49 0 -82 2 -73 6 16 7 98 5 143 -2z m-217 -3 c-10 -2 -28 -2 -40 0 -13 2 -5 4 17 4 22 1 32 -1 23 -4z m-108 -153 c0 -6 -19 -10 -42 -9 -43 1 -43 1 -15 13 15 7 24 16 20 20 -5 5 2 3 15 -3 12 -6 22 -16 22 -21z m650 20 c21 -7 19 -8 -17 -9 -23 -1 -45 4 -48 9 -7 12 29 12 65 0z">
      </path>
      <path id="pNpuUYYSS" d="M4623 3383 c15 -2 37 -2 50 0 12 2 0 4 -28 4 -27 0 -38 -2 -22 -4z"></path>
      <path id="pbctMfkec" d="M4523 3373 c9 -2 25 -2 35 0 9 3 1 5 -18 5 -19 0 -27 -2 -17 -5z"></path>
      <path id="pY6THn9Ny"
        d="M4750 3370 c-30 -5 -36 -8 -20 -10 14 -1 -4 -8 -40 -14 -36 -7 -70 -15 -76 -19 -6 -3 -37 -9 -69 -12 -116 -10 -63 -15 191 -16 238 -2 249 -3 134 -10 -196 -13 -207 -17 -47 -15 81 0 147 -2 147 -6 0 -5 -40 -8 -89 -8 -54 0 -105 -6 -132 -15 -24 -9 -55 -13 -69 -10 -15 3 -37 1 -51 -4 -17 -7 14 -10 111 -9 74 0 122 3 105 7 -21 5 -2 9 65 13 104 6 123 3 64 -8 -22 -4 -42 -11 -45 -16 -4 -5 -103 -10 -230 -10 -123 0 -251 -3 -284 -8 l-60 -7 80 -2 c56 -1 75 -4 65 -11 -8 -5 -35 -10 -60 -11 -25 0 -65 -4 -90 -9 -33 -7 -15 -8 63 -4 82 4 115 9 139 24 19 11 36 16 42 11 6 -5 20 -11 31 -14 11 -2 2 -5 -20 -6 -50 -2 -28 -20 25 -21 65 -1 9 -18 -70 -21 -54 -2 -74 0 -73 9 4 15 -34 16 -39 0 -2 -6 -36 -14 -79 -18 -54 -5 -63 -8 -34 -10 27 -2 32 -4 17 -7 -19 -4 -21 -7 -11 -19 9 -11 6 -14 -17 -15 -16 0 -45 -7 -64 -14 -33 -13 -34 -14 -8 -14 28 -1 51 -21 24 -21 -9 0 -16 -4 -16 -10 0 -5 9 -10 20 -10 27 0 25 -18 -2 -30 -16 -6 -18 -9 -7 -9 9 -1 22 -8 29 -16 10 -13 9 -15 -11 -15 -19 -1 -21 -3 -9 -9 8 -5 76 -9 150 -9 74 0 252 0 394 -1 143 0 262 1 264 4 3 3 -62 5 -144 5 -133 1 -147 2 -130 15 19 14 19 15 -9 15 -45 0 -24 9 36 16 60 6 78 14 34 14 -16 0 -25 3 -22 6 7 8 31 9 153 12 l80 2 2 90 c2 80 1 90 -15 90 -17 1 -17 1 0 14 9 7 17 25 17 40 0 25 -2 26 -57 26 -42 0 -54 3 -46 11 6 6 31 10 56 8 l44 -4 1 38 2 38 -78 -7 c-42 -4 -85 -11 -94 -15 -18 -10 -135 -13 -126 -3 8 8 120 25 210 33 42 3 80 9 84 14 9 9 -274 7 -336 -3z m268 -197 c-10 -2 -26 -2 -35 0 -10 3 -2 5 17 5 19 0 27 -2 18 -5z m-408 -89 c0 -2 -15 -4 -32 -3 -27 0 -29 2 -13 8 18 8 45 4 45 -5z m133 9 c-13 -2 -35 -2 -50 0 -16 2 -5 4 22 4 28 0 40 -2 28 -4z m327 -37 c0 -9 -39 -13 -51 -5 -10 6 -4 9 19 9 17 0 32 -2 32 -4z m-200 -36 c12 -8 11 -10 -7 -10 -13 0 -23 5 -23 10 0 13 11 13 30 0z m-470 -30 c0 -5 8 -9 18 -8 9 1 33 0 52 -2 29 -2 26 -4 -20 -9 -42 -5 -63 -3 -90 11 l-35 17 38 1 c20 0 37 -4 37 -10z m328 -51 c-7 -5 -26 -8 -43 -8 -21 1 -24 3 -10 6 11 3 24 9 29 13 5 5 15 6 23 3 12 -5 12 -7 1 -14z">
      </path>
      <path id="pVf6hA5CE" d="M3498 3353 c12 -2 32 -2 45 0 12 2 2 4 -23 4 -25 0 -35 -2 -22 -4z"></path>
      <path id="p13l7Kjtyl" d="M3638 3333 c12 -2 30 -2 40 0 9 3 -1 5 -23 4 -22 0 -30 -2 -17 -4z"></path>
      <path id="pCBOWXm8J"
        d="M285 3311 l-60 -7 58 -4 c32 -3 88 -2 125 1 37 3 58 7 46 7 -12 1 -41 4 -65 6 -24 2 -71 1 -104 -3z"></path>
      <path id="pE5zhfVXj" d="M3475 3290 c-16 -7 -13 -9 17 -9 20 -1 40 4 43 9 7 12 -32 12 -60 0z"></path>
      <path id="pEkit4OQ0" d="M618 3283 c12 -2 32 -2 45 0 12 2 2 4 -23 4 -25 0 -35 -2 -22 -4z"></path>
      <path id="p11pLzhhJL" d="M4298 3273 c12 -2 30 -2 40 0 9 3 -1 5 -23 4 -22 0 -30 -2 -17 -4z"></path>
      <path id="pCyd5cPX0" d="M4113 3263 c9 -2 25 -2 35 0 9 3 1 5 -18 5 -19 0 -27 -2 -17 -5z"></path>
      <path id="pVOuvgApn" d="M2018 3253 c12 -2 30 -2 40 0 9 3 -1 5 -23 4 -22 0 -30 -2 -17 -4z"></path>
      <path id="phH0MtMeC"
        d="M4405 3249 c-44 -5 -96 -13 -115 -18 -30 -8 -23 -9 46 -10 45 -1 94 4 110 9 16 6 63 14 104 19 l75 8 -70 0 c-38 0 -106 -4 -150 -8z">
      </path>
      <path id="pNLvYviRx"
        d="M3538 3233 c-38 -2 -68 -7 -68 -12 0 -10 160 -1 180 10 11 6 6 8 -15 7 -16 -1 -60 -3 -97 -5z"></path>
      <path id="p9MKxPNPV" d="M818 3183 c12 -2 32 -2 45 0 12 2 2 4 -23 4 -25 0 -35 -2 -22 -4z"></path>
      <path id="p1BryRyeP4" d="M3543 3183 c15 -2 37 -2 50 0 12 2 0 4 -28 4 -27 0 -38 -2 -22 -4z"></path>
      <path id="pLfKIkMpF"
        d="M3485 3150 c3 -5 -1 -10 -11 -10 -13 0 -14 -3 -4 -15 7 -8 10 -22 6 -30 -4 -11 1 -15 17 -15 19 -1 18 -3 -10 -18 -31 -17 -31 -17 -13 -39 18 -23 88 -35 75 -13 -3 6 -1 10 4 10 19 0 12 18 -10 25 -12 4 -18 10 -13 14 16 11 14 31 -3 31 -16 1 -16 2 2 13 11 7 36 17 55 23 l35 12 -47 1 c-26 1 -50 6 -53 11 -3 6 -13 10 -21 10 -8 0 -12 -4 -9 -10z">
      </path>
      <path id="p195QeqZjh" d="M3635 3110 c-27 -7 -25 -8 17 -9 26 0 50 4 53 9 7 11 -25 11 -70 0z"></path>
      <path id="p64M2NUnE" d="M3724 3112 c5 -8 66 -4 66 4 0 2 -16 4 -36 4 -19 0 -33 -4 -30 -8z"></path>
      <path id="pM52adiSS" d="M170 3100 c-11 -7 -7 -10 18 -10 20 0 31 4 27 10 -8 13 -26 13 -45 0z"></path>
      <path id="pw5rr3i4T" d="M266 3085 c6 -16 22 -19 48 -9 28 11 17 24 -19 24 -26 0 -33 -3 -29 -15z"></path>
      <path id="pS5Bd9P9i" d="M3580 3081 l-35 -7 47 -8 c52 -9 118 -1 118 14 0 11 -76 11 -130 1z"></path>
      <path id="pVgil37qs" d="M570 3060 c0 -5 9 -10 20 -10 11 0 20 5 20 10 0 6 -9 10 -20 10 -11 0 -20 -4 -20 -10z">
      </path>
      <path id="pS40lhXPE" d="M3728 3053 c12 -2 30 -2 40 0 9 3 -1 5 -23 4 -22 0 -30 -2 -17 -4z"></path>
      <path id="p3HmqCsP5"
        d="M3603 3020 c-3 -11 -10 -20 -15 -20 -5 0 -7 -4 -3 -9 3 -5 -5 -12 -17 -14 -18 -3 -17 -5 7 -6 23 -1 27 -3 15 -11 -18 -11 -19 -11 90 -15 53 -2 75 0 60 5 -14 4 -37 8 -52 9 -51 2 -29 20 31 27 37 4 62 12 65 20 4 11 -8 14 -59 14 -37 0 -65 4 -65 10 0 6 -12 10 -26 10 -17 0 -28 -6 -31 -20z">
      </path>
      <path id="pXuJSeSFs" d="M4075 3020 c-14 -16 -15 -20 -4 -20 16 0 39 19 39 32 0 14 -16 9 -35 -12z"></path>
      <path id="pyCDpPpiW" d="M4120 3010 c0 -5 9 -10 20 -10 11 0 20 5 20 10 0 6 -9 10 -20 10 -11 0 -20 -4 -20 -10z">
      </path>
      <path id="pRV5Ub4U2" d="M3483 2963 c-34 -7 -28 -21 12 -29 41 -7 48 -4 39 20 -6 16 -10 17 -51 9z"></path>
      <path id="pgCEQlxyZ"
        d="M4950 2858 c-47 -3 -128 -7 -180 -8 -52 -1 -89 -4 -81 -7 19 -8 401 8 401 17 0 8 -18 8 -140 -2z"></path>
      <path id="p8MZbxbZx" d="M4513 2833 c20 -2 54 -2 75 0 20 2 3 4 -38 4 -41 0 -58 -2 -37 -4z"></path>
      <path id="pNUK8eA8H" d="M4238 2823 c12 -2 30 -2 40 0 9 3 -1 5 -23 4 -22 0 -30 -2 -17 -4z"></path>
      <path id="pTLKxQhxZ" d="M3628 2813 c23 -2 61 -2 85 0 23 2 4 4 -43 4 -47 0 -66 -2 -42 -4z"></path>
      <path id="p3hcjDC2b" d="M3773 2813 c9 -2 25 -2 35 0 9 3 1 5 -18 5 -19 0 -27 -2 -17 -5z"></path>
      <path id="ptE6HyFBb" d="M3898 2813 c34 -2 88 -2 120 0 31 2 3 3 -63 3 -66 0 -92 -1 -57 -3z"></path>
      <path id="ppq5U9Cus" d="M3438 2803 c12 -2 32 -2 45 0 12 2 2 4 -23 4 -25 0 -35 -2 -22 -4z"></path>
      <path id="pGqYpTcY6" d="M3158 2793 c17 -2 47 -2 65 0 17 2 3 4 -33 4 -36 0 -50 -2 -32 -4z"></path>
      <path id="p1EMXz5Anh"
        d="M3106 2781 c6 -7 29 -14 50 -16 30 -3 35 -1 21 6 -10 6 -23 8 -30 6 -7 -2 -21 0 -32 6 -15 7 -17 7 -9 -2z">
      </path>
      <path id="pgvgQaN56" d="M453 2753 c170 -2 444 -2 610 0 166 1 28 2 -308 2 -335 0 -471 -1 -302 -2z"></path>
      <path id="pKvNav0ig" d="M2813 2753 c42 -2 112 -2 155 0 42 1 7 3 -78 3 -85 0 -120 -2 -77 -3z"></path>
      <path id="p1AfA5LkDU" d="M2500 2740 c20 -13 137 -13 145 0 4 6 -24 10 -77 10 -57 0 -78 -3 -68 -10z"></path>
      <path id="pXFZTom5s"
        d="M2095 2635 c-16 -8 -45 -14 -63 -15 -25 0 -35 -5 -39 -20 -7 -25 -19 -26 -32 -2 -6 9 -11 13 -11 7 0 -6 -22 -8 -52 -6 -37 2 -55 -1 -62 -11 -23 -31 -52 -36 -174 -33 -70 2 -122 0 -122 -6 0 -5 -13 -9 -30 -9 -16 0 -30 -3 -30 -7 0 -15 -54 -33 -97 -33 -24 0 -43 -4 -43 -10 0 -5 -13 -10 -28 -10 -16 0 -34 -8 -42 -20 -10 -14 -26 -20 -52 -20 -31 0 -38 -4 -38 -20 0 -14 -7 -20 -22 -20 -19 0 -20 -2 -8 -10 11 -7 -4 -10 -50 -11 -76 -1 -56 -16 25 -19 44 -2 47 -3 20 -10 -16 -4 -66 -9 -110 -10 l-80 -3 55 -7 c53 -6 53 -7 13 -8 -24 -1 -43 -6 -43 -11 0 -5 -19 -12 -42 -15 -41 -7 -42 -8 -20 -20 23 -12 23 -13 -16 -24 -22 -7 -51 -12 -66 -12 -28 0 -56 -20 -56 -39 0 -6 -6 -10 -12 -8 -7 1 -12 -6 -10 -15 2 -10 -2 -18 -8 -18 -5 0 -10 -14 -10 -31 0 -38 -24 -35 -28 4 -4 31 -8 33 -30 11 -15 -15 -16 -15 -22 2 -5 12 -9 14 -14 6 -4 -7 -16 -12 -27 -12 -10 0 -19 -4 -19 -10 0 -5 -7 -10 -15 -10 -17 0 -65 -43 -65 -59 0 -5 -9 -13 -20 -16 -11 -3 -20 -11 -20 -16 0 -5 -22 -9 -50 -9 -27 0 -50 -4 -50 -10 0 -5 -17 -10 -39 -10 -31 0 -40 -4 -44 -21 -4 -15 -13 -20 -34 -19 -49 4 -61 0 -65 -18 -4 -13 -15 -19 -36 -20 -17 0 -41 -6 -53 -12 -17 -10 -23 -9 -30 1 -7 11 -11 11 -17 2 -4 -7 -20 -14 -35 -15 l-27 -2 0 -268 c0 -208 3 -268 13 -268 6 0 32 10 57 21 24 11 64 23 88 26 31 4 40 9 30 15 -10 8 -10 11 -1 15 8 3 11 14 7 28 -8 33 16 38 174 39 115 1 135 3 146 18 7 10 20 18 28 18 15 0 38 19 38 32 0 4 -9 8 -20 8 -27 0 -25 24 3 38 42 21 182 54 242 57 73 4 168 14 215 24 30 6 36 12 41 41 3 19 10 44 17 56 12 23 0 44 -25 44 -21 0 -15 37 7 43 24 6 60 -2 60 -14 0 -5 53 -6 118 -4 64 2 129 5 145 5 15 0 41 7 58 16 17 8 37 13 45 10 10 -4 14 4 14 29 0 19 5 35 10 35 6 0 10 14 10 30 0 42 25 77 69 96 20 9 52 23 71 32 57 26 122 41 178 42 29 0 51 4 48 9 -9 14 123 63 187 68 47 5 55 8 46 19 -9 11 -6 14 15 14 39 0 111 31 94 41 -8 6 5 9 34 9 47 0 72 15 48 30 -6 4 9 9 35 13 26 2 50 9 54 15 3 5 17 13 31 17 14 4 27 11 30 15 3 4 36 26 74 48 66 40 84 47 114 43 6 -1 12 3 12 10 0 8 4 8 15 -1 8 -6 20 -8 26 -4 19 11 79 11 79 0 0 -7 3 -7 8 1 4 6 36 13 72 16 36 3 79 8 95 11 32 7 90 13 199 23 53 4 82 13 118 35 39 24 51 28 63 18 8 -6 29 -10 47 -8 33 3 33 3 45 -57 21 -101 41 -247 42 -310 2 -60 13 -87 30 -69 5 5 12 45 15 89 8 108 22 200 33 220 8 14 13 13 37 -10 27 -25 86 -35 86 -15 0 6 11 10 25 10 15 0 26 6 26 15 1 8 2 21 3 28 0 6 18 13 38 15 29 2 41 10 54 32 11 18 23 26 33 23 12 -3 11 -1 -2 7 -22 14 -77 3 -77 -15 0 -9 6 -12 15 -9 10 4 13 2 10 -8 -8 -19 -35 -19 -35 0 0 9 -6 12 -16 8 -8 -3 -12 -2 -9 4 3 6 -4 10 -16 10 -18 0 -19 -2 -9 -15 10 -12 9 -15 -4 -15 -13 0 -15 -4 -6 -19 17 -33 12 -51 -15 -51 -14 0 -25 -4 -25 -10 0 -16 -19 -12 -42 10 -12 11 -28 20 -35 20 -16 0 -17 17 -1 22 7 3 9 12 5 22 -9 22 -27 11 -27 -16 0 -17 -2 -18 -15 -8 -9 7 -27 10 -45 6 -26 -5 -32 -2 -40 18 -5 13 -14 26 -20 28 -8 2 -6 13 4 33 18 34 10 41 -32 29 -34 -9 -52 -9 -76 1 -11 5 -25 4 -35 -3 -63 -45 -87 -51 -284 -66 -37 -3 -77 -11 -88 -16 -27 -15 -150 -11 -229 6 -131 29 -138 32 -145 62 l-6 28 -147 0 c-81 0 -176 3 -212 6 -46 5 -74 3 -95 -7z m1405 -135 c0 5 7 10 16 10 13 0 15 -6 10 -32 -4 -18 -9 -59 -13 -90 -3 -32 -9 -56 -12 -53 -4 2 -5 -12 -3 -31 2 -19 0 -34 -6 -34 -16 0 -20 71 -4 86 11 12 11 14 -2 14 -10 0 -17 10 -18 25 -4 62 -6 81 -8 90 -5 21 1 25 20 15 14 -7 20 -7 20 0z">
      </path>
      <path id="pXaTR44BR"
        d="M3927 2595 c-21 -7 -41 -16 -44 -19 -9 -9 -3 -7 41 8 23 8 49 11 60 6 70 -26 128 -42 133 -36 4 3 1 6 -6 6 -7 0 -9 5 -5 12 4 6 3 8 -4 4 -9 -5 -110 16 -130 28 -4 2 -24 -2 -45 -9z">
      </path>
      <path id="pzqBU6d1W"
        d="M4210 2600 c-28 -5 -31 -8 -17 -14 9 -5 26 -6 37 -3 16 4 20 0 20 -18 0 -12 7 -28 15 -35 8 -7 15 -19 15 -26 0 -21 46 -47 71 -39 12 4 32 2 45 -5 12 -7 30 -10 39 -6 18 7 16 27 -3 34 -7 2 -10 -2 -6 -12 7 -18 -11 -22 -22 -5 -4 7 -21 9 -42 6 -42 -7 -72 7 -72 34 0 11 -7 22 -15 25 -8 4 -15 19 -15 34 0 35 -5 38 -50 30z">
      </path>
      <path id="pSHwtzyCs" d="M3577 2570 c18 -21 28 -27 18 -10 -3 6 0 10 7 11 7 0 4 4 -7 9 -32 14 -36 11 -18 -10z">
      </path>
      <path id="plsbU3fwN" d="M4150 2575 c-10 -12 -10 -15 3 -15 19 0 31 16 18 24 -5 3 -14 -1 -21 -9z"></path>
      <path id="pgBet36Br"
        d="M4531 2493 c-8 -15 -12 -16 -22 -5 -7 6 -17 12 -22 12 -5 0 -2 -7 7 -15 19 -20 46 -19 46 1 0 11 6 14 23 9 17 -5 19 -4 7 4 -21 15 -28 14 -39 -6z">
      </path>
      <path id="p13W6d3zm3"
        d="M4613 2466 c20 -19 27 -32 23 -49 -3 -12 -3 -16 0 -9 6 14 35 16 50 4 5 -4 33 -16 63 -26 49 -18 54 -18 63 -2 13 24 74 21 88 -4 14 -26 34 -25 59 1 12 13 24 18 33 13 7 -4 21 -9 31 -9 9 -1 27 -12 39 -25 24 -26 39 -11 17 16 -37 44 -210 69 -259 36 -35 -23 -48 -23 -55 -1 -7 20 -25 27 -25 9 0 -18 -25 -11 -39 11 -11 18 -15 19 -23 8 -6 -9 -11 -10 -14 -3 -10 24 -30 42 -54 49 l-25 8 28 -27z">
      </path>
      <path id="pXxWgns3f"
        d="M780 1617 c0 -11 14 -16 50 -19 28 -1 50 0 50 4 0 4 10 9 23 11 12 2 -4 5 -35 6 -31 0 -63 4 -72 7 -10 4 -16 1 -16 -9z">
      </path>
    </g>
  </g>
  <g id="lSb7r7RQBXOiz9CkMzO8m7" fill="none" stroke="rgb(127,73,40)" stroke-width="10" style="transform: none;">
    <g>
      <path id="p17X6Akco1"
        d="M1552 3379 c10 -5 28 -9 40 -8 13 1 41 1 63 -1 36 -3 34 -4 -20 -10 l-60 -7 70 -2 c78 -3 234 -28 195 -31 -51 -5 31 -18 119 -19 46 0 82 -3 79 -6 -5 -5 -334 -35 -385 -35 -13 0 -23 -4 -23 -10 0 -5 25 -10 55 -10 42 0 53 -3 49 -14 -6 -15 41 -26 115 -26 61 0 47 -8 -23 -14 -70 -6 -80 -12 -32 -21 48 -9 36 -25 -20 -25 -32 0 -44 -4 -44 -15 0 -9 -10 -15 -22 -16 -22 -1 -22 -1 2 -9 23 -7 22 -8 -10 -9 -19 -1 -41 -5 -49 -10 -8 -5 34 -12 110 -16 77 -5 114 -11 99 -15 -14 -4 -36 -5 -50 -3 -14 2 -43 0 -65 -5 -32 -8 -35 -10 -13 -11 15 -1 39 -6 55 -12 15 -6 45 -11 66 -11 21 1 35 -3 32 -9 -4 -5 -29 -9 -56 -9 -46 0 -50 -2 -44 -20 5 -17 2 -20 -24 -20 -16 0 -33 -5 -36 -10 -4 -7 -45 -11 -98 -11 -51 0 -114 -1 -142 -3 -42 -3 -969 -19 -1000 -18 -39 2 -276 0 -350 -3 -50 -2 -100 -4 -112 -4 -22 -1 -23 -5 -23 -71 l0 -70 558 0 c307 0 720 -2 918 -4 197 -2 292 -1 209 3 -102 4 -133 8 -95 11 l55 5 -55 11 c-36 8 -45 12 -27 13 49 2 18 21 -34 21 -64 0 -62 22 2 31 24 3 35 7 24 9 -11 1 -23 2 -27 1 -5 0 -8 3 -8 9 0 5 28 10 63 11 91 1 160 8 167 17 9 12 37 15 275 27 83 4 175 11 205 15 l55 8 -53 1 c-32 1 -51 5 -47 11 3 6 33 8 70 5 37 -3 67 -1 70 5 3 6 14 10 23 10 15 0 15 -2 2 -10 -11 -7 -6 -9 20 -9 19 1 27 3 18 6 -10 2 -18 8 -18 12 0 5 -31 12 -70 15 -38 4 -70 11 -70 17 0 5 -18 9 -40 9 -22 0 -40 4 -40 8 0 4 17 7 38 5 31 -2 33 -1 12 6 -14 4 -44 6 -67 4 -24 -2 -43 1 -43 6 0 14 141 26 149 13 4 -6 38 -13 76 -16 47 -4 62 -3 45 3 -14 5 -38 10 -55 10 -23 1 -27 3 -15 11 11 7 3 10 -29 10 -55 0 -48 9 16 20 45 7 46 8 13 10 l-35 2 30 8 c19 5 -14 8 -92 9 -67 0 -124 5 -127 10 -3 5 -25 7 -49 5 l-42 -4 50 15 c28 8 64 15 80 16 27 2 28 2 5 6 -14 3 -29 9 -34 14 -6 5 -29 9 -52 9 -24 0 -45 3 -47 8 -3 4 35 7 84 7 62 0 92 -4 98 -13 6 -10 23 -10 77 -2 38 5 87 10 110 10 22 0 56 8 75 18 l34 17 -60 6 c-51 5 -54 6 -17 7 23 1 42 7 42 12 0 7 -66 9 -192 6 -111 -2 -159 -1 -113 3 58 5 69 8 40 11 -26 2 -9 6 50 10 198 16 255 23 255 32 0 6 -14 7 -32 3 -18 -4 -103 -8 -190 -10 -87 -1 -161 -5 -165 -8 -3 -4 -36 -6 -72 -6 -59 2 -62 3 -26 9 l40 7 -45 2 c-63 2 -90 21 -30 21 25 0 56 3 70 6 20 4 22 3 10 -5 -11 -8 39 -11 180 -11 186 0 193 1 170 17 l-24 17 24 7 c14 4 -168 7 -405 7 -286 1 -424 -2 -413 -9z m506 -126 c-10 -2 -28 -2 -40 0 -13 2 -5 4 17 4 22 1 32 -1 23 -4z m2 -22 c-8 -5 -33 -5 -55 -1 -40 8 -40 8 15 9 35 0 50 -3 40 -8z m90 -153 c0 -4 -48 -8 -107 -7 -60 0 -100 3 -91 7 26 10 198 10 198 0z">
      </path>
      <path id="p1DcAJLmkL"
        d="M3000 3375 l-135 -12 135 -1 c76 -1 130 -6 125 -11 -11 -10 -209 -30 -306 -32 -35 -1 -75 -4 -89 -8 -36 -11 85 -21 125 -10 42 10 258 17 243 7 -7 -4 -61 -8 -120 -8 -65 0 -108 -4 -108 -10 0 -5 -19 -10 -42 -11 -94 -2 -92 -17 2 -18 52 -1 102 -6 110 -11 10 -7 -16 -10 -82 -10 -53 0 -99 -4 -102 -9 -3 -4 70 -7 162 -5 104 1 146 -1 112 -5 -30 -4 -50 -9 -45 -11 6 -2 -10 -6 -35 -10 -29 -5 -16 -6 37 -3 45 3 92 1 105 -3 20 -7 19 -9 -17 -15 -22 -4 -69 -6 -105 -5 -36 2 -53 2 -37 -1 57 -9 23 -21 -80 -29 -91 -7 -101 -9 -63 -15 l45 -6 -42 -1 c-47 -2 -60 -21 -15 -23 23 -2 24 -2 5 -6 -13 -2 -23 -9 -23 -14 0 -5 -17 -10 -37 -10 -38 -1 -38 -1 -8 -9 17 -4 49 -8 72 -9 72 -2 65 -22 -12 -33 -13 -2 -4 -8 25 -17 25 -7 54 -17 65 -22 11 -4 31 -10 45 -12 16 -3 10 -5 -15 -6 -23 0 -46 4 -53 11 -16 16 -28 2 -13 -16 22 -26 95 -32 451 -39 95 -2 145 -8 170 -19 27 -12 59 -14 135 -11 94 4 715 4 872 0 68 -2 71 -3 56 -19 -13 -14 -33 -18 -97 -19 -45 0 -103 -4 -131 -9 -48 -7 -46 -7 30 -9 44 0 213 6 375 14 162 8 311 16 330 16 54 2 70 9 70 30 0 20 -54 22 -660 21 -74 0 -142 4 -150 9 -12 6 -10 8 9 9 20 0 21 2 11 15 -7 8 -20 15 -29 16 -11 0 -9 3 7 9 27 12 29 30 2 30 -11 0 -20 5 -20 10 0 6 7 10 16 10 27 0 4 20 -24 21 -26 0 -25 1 8 14 19 7 48 14 64 14 23 1 26 4 17 15 -10 12 -8 15 11 19 15 3 10 5 -17 7 -29 2 -20 5 34 10 43 4 77 12 79 18 5 16 43 15 39 0 -1 -9 19 -11 73 -9 79 3 135 20 70 21 -53 1 -75 19 -25 21 22 1 31 4 20 6 -11 3 -25 9 -31 14 -6 5 -23 0 -42 -11 -24 -15 -57 -20 -139 -24 -78 -4 -96 -3 -63 4 25 5 65 9 90 9 25 1 52 6 60 11 10 7 -9 10 -65 11 -164 3 20 16 260 18 126 1 232 5 235 10 3 4 22 11 44 15 59 11 40 14 -64 8 -67 -4 -86 -8 -65 -13 17 -4 -31 -7 -105 -7 -97 -1 -128 2 -111 9 14 5 36 7 51 4 14 -3 45 1 69 10 27 9 78 15 132 15 49 0 89 3 89 8 0 4 -66 6 -147 6 -160 -2 -149 2 47 15 115 7 104 8 -134 10 -254 1 -307 6 -191 16 32 3 65 10 74 14 9 5 43 12 76 17 48 6 55 9 35 15 -33 9 -28 10 190 18 96 4 -266 7 -805 7 -670 0 -1023 -3 -1115 -11z m1558 -2 c-10 -2 -26 -2 -35 0 -10 3 -2 5 17 5 19 0 27 -2 18 -5z m-1015 -20 c-13 -2 -33 -2 -45 0 -13 2 -3 4 22 4 25 0 35 -2 23 -4z m157 -23 c12 -8 11 -10 -5 -9 -11 1 -33 5 -50 9 l-30 8 35 1 c19 0 42 -4 50 -9z m-198 -26 c47 -8 39 -24 -10 -23 -26 1 -31 3 -17 8 11 3 -27 8 -85 12 l-105 5 90 2 c50 1 107 -1 127 -4z m-290 -21 c-40 -2 -103 -2 -140 0 -37 2 -4 3 73 3 77 0 107 -2 67 -3z m1126 -10 c-10 -2 -28 -2 -40 0 -13 2 -5 4 17 4 22 1 32 -1 23 -4z m-190 -10 c-10 -2 -26 -2 -35 0 -10 3 -2 5 17 5 19 0 27 -2 18 -5z m402 -14 c-41 -5 -88 -13 -104 -19 -16 -5 -65 -10 -110 -9 -69 1 -76 2 -46 10 50 13 183 26 265 26 l70 0 -75 -8z m-900 -18 c-20 -11 -180 -20 -180 -10 0 5 30 10 68 12 37 2 81 4 97 5 21 1 26 -1 15 -7z m-361 -21 c-9 -5 -43 -12 -75 -15 -45 -3 -51 -3 -26 4 18 5 36 11 39 15 4 3 22 6 42 6 27 -1 32 -3 20 -10z m304 -27 c-13 -2 -35 -2 -50 0 -16 2 -5 4 22 4 28 0 40 -2 28 -4z m-78 -33 c3 -5 27 -10 53 -11 l47 -1 -35 -12 c-19 -6 -44 -16 -55 -23 -18 -11 -18 -12 -2 -13 17 0 19 -20 3 -31 -5 -4 1 -10 13 -14 22 -7 29 -25 10 -25 -5 0 -7 -4 -4 -10 13 -22 -57 -10 -75 13 -18 22 -18 22 13 39 28 15 29 17 10 18 -16 0 -21 4 -17 15 4 8 1 22 -6 30 -10 12 -9 15 4 15 10 0 14 5 11 10 -3 6 1 10 9 10 8 0 18 -4 21 -10z m-480 -51 c43 -7 40 -7 -20 -3 -38 2 -99 5 -135 6 l-65 2 70 6 c39 3 77 4 85 2 8 -3 38 -9 65 -13z m670 11 c-3 -5 -27 -9 -53 -9 -42 1 -44 2 -17 9 45 11 77 11 70 0z m85 6 c0 -8 -61 -12 -66 -4 -3 4 11 8 30 8 20 0 36 -2 36 -4z m-80 -36 c0 -15 -66 -23 -118 -14 l-47 8 35 7 c54 10 130 10 130 -1z m58 -27 c-10 -2 -28 -2 -40 0 -13 2 -5 4 17 4 22 1 32 -1 23 -4z m-108 -23 c0 -6 28 -10 65 -10 51 0 63 -3 59 -14 -3 -8 -28 -16 -65 -20 -60 -7 -82 -25 -31 -27 15 -1 38 -5 52 -9 15 -5 -7 -7 -60 -5 -109 4 -108 4 -90 15 12 8 8 10 -15 11 -24 1 -25 3 -7 6 12 2 20 9 17 14 -4 5 -2 9 3 9 5 0 12 9 15 20 3 14 14 20 31 20 14 0 26 -4 26 -10z m450 2 c0 -13 -23 -32 -39 -32 -11 0 -10 4 4 20 19 21 35 26 35 12z m50 -22 c0 -5 -9 -10 -20 -10 -11 0 -20 5 -20 10 0 6 9 10 20 10 11 0 20 -4 20 -10z m-626 -56 c9 -24 2 -27 -39 -20 -54 10 -44 27 21 35 7 0 15 -6 18 -15z">
      </path>
      <path id="pEZucl9x4"
        d="M5000 3360 c-91 -9 -200 -27 -208 -34 -9 -10 100 -7 132 4 17 5 61 12 99 16 37 3 67 10 67 15 0 5 -3 8 -7 7 -5 -1 -42 -4 -83 -8z">
      </path>
      <path id="pOmBWFKzD" d="M2688 3333 c12 -2 30 -2 40 0 9 3 -1 5 -23 4 -22 0 -30 -2 -17 -4z"></path>
      <path id="pEqqarAHz" d="M1442 3283 c37 -2 100 -2 140 0 40 1 10 3 -67 3 -77 0 -110 -1 -73 -3z"></path>
      <path id="piSjakWk0" d="M4985 3270 c-4 -6 15 -10 50 -10 35 0 54 4 50 10 -3 6 -26 10 -50 10 -24 0 -47 -4 -50 -10z">
      </path>
      <path id="prlgF3WTh" d="M2180 3170 c0 -5 11 -10 25 -10 14 0 25 5 25 10 0 6 -11 10 -25 10 -14 0 -25 -4 -25 -10z">
      </path>
      <path id="p1EoNoEVW5" d="M4983 3173 c9 -2 25 -2 35 0 9 3 1 5 -18 5 -19 0 -27 -2 -17 -5z"></path>
      <path id="p19R8vgHSn" d="M1575 3110 c3 -5 25 -10 48 -9 36 1 38 2 17 9 -36 12 -72 12 -65 0z"></path>
      <path id="pWZ1xTai4" d="M4565 3089 c-16 -6 -14 -8 13 -8 33 -1 41 4 20 12 -7 2 -22 1 -33 -4z"></path>
      <path id="pKHxvczcL" d="M4693 3093 c15 -2 37 -2 50 0 12 2 0 4 -28 4 -27 0 -38 -2 -22 -4z"></path>
      <path id="pZFf92fje" d="M2368 3063 c12 -2 30 -2 40 0 9 3 -1 5 -23 4 -22 0 -30 -2 -17 -4z"></path>
      <path id="pb6P7Xs9q"
        d="M4360 2982 c27 -14 48 -16 90 -11 46 5 49 7 20 9 -19 2 -43 3 -52 2 -10 -1 -18 3 -18 8 0 6 -17 10 -37 10 l-38 -1 35 -17z">
      </path>
      <path id="pmd8MHc2u" d="M3550 2824 c-76 -9 -84 -11 -40 -12 30 0 93 3 140 7 72 6 78 7 40 11 -25 3 -88 0 -140 -6z">
      </path>
      <path id="p563Odu4i" d="M4098 2823 c23 -2 61 -2 85 0 23 2 4 4 -43 4 -47 0 -66 -2 -42 -4z"></path>
      <path id="pGogW475O" d="M3358 2803 c12 -2 32 -2 45 0 12 2 2 4 -23 4 -25 0 -35 -2 -22 -4z"></path>
      <path id="pSNyHsYtO"
        d="M3097 2793 c-9 -8 12 -33 27 -33 6 0 2 6 -9 12 -19 11 -19 11 0 19 15 6 16 8 4 8 -9 1 -19 -2 -22 -6z"></path>
      <path id="p19mJdFxSa" d="M2003 2753 c75 -2 199 -2 275 0 75 1 13 3 -138 3 -151 0 -213 -2 -137 -3z"></path>
      <path id="p6K16SvlY" d="M2693 2753 c9 -2 25 -2 35 0 9 3 1 5 -18 5 -19 0 -27 -2 -17 -5z"></path>
      <path id="po5BjLr4L"
        d="M3270 2591 c-34 -21 -63 -30 -115 -34 -110 -10 -168 -16 -200 -23 -16 -3 -59 -8 -95 -11 -36 -3 -68 -10 -72 -16 -5 -8 -8 -8 -8 -1 0 11 -60 11 -79 0 -6 -4 -18 -2 -26 4 -11 9 -15 9 -15 1 0 -7 -6 -11 -12 -10 -30 4 -48 -3 -114 -43 -38 -22 -71 -44 -74 -48 -3 -4 -16 -11 -30 -15 -14 -4 -28 -12 -31 -17 -4 -6 -28 -13 -54 -15 -26 -4 -41 -9 -35 -13 24 -15 -1 -30 -48 -30 -29 0 -42 -3 -34 -9 17 -10 -55 -41 -94 -41 -21 0 -24 -3 -15 -14 9 -11 1 -14 -46 -19 -64 -5 -196 -54 -187 -68 3 -5 -19 -9 -48 -9 -56 -1 -121 -16 -178 -42 -19 -9 -51 -23 -71 -32 -44 -19 -69 -54 -69 -96 0 -16 -4 -30 -10 -30 -5 0 -10 -16 -10 -35 0 -25 -4 -33 -14 -29 -8 3 -28 -2 -45 -10 -17 -9 -43 -16 -58 -16 -16 0 -81 -3 -145 -5 -65 -2 -118 -1 -118 4 0 12 -36 20 -60 14 -22 -6 -28 -43 -7 -43 25 0 37 -21 25 -44 -7 -12 -14 -37 -17 -56 -5 -29 -11 -35 -41 -41 -47 -10 -142 -20 -215 -24 -60 -3 -200 -36 -243 -57 -27 -14 -29 -38 -2 -38 11 0 20 -4 20 -8 0 -13 -23 -32 -38 -32 -8 0 -21 -8 -28 -17 -11 -16 -31 -18 -146 -19 -158 -1 -182 -6 -174 -39 4 -14 1 -25 -7 -28 -9 -4 -9 -8 1 -15 10 -6 2 -11 -26 -14 -21 -3 -66 -16 -100 -29 l-62 -24 0 -49 c0 -48 0 -48 28 -42 15 3 83 17 152 30 69 13 149 31 178 39 29 9 98 21 155 27 185 20 239 31 244 49 10 40 166 76 398 94 17 1 29 7 28 14 -2 6 24 22 57 35 60 23 69 31 50 43 -6 3 3 18 20 32 34 28 29 46 -15 57 -16 4 -25 13 -25 26 0 13 -7 20 -20 20 -11 0 -23 6 -26 14 -3 8 -17 17 -32 21 -20 5 -23 8 -11 15 7 5 21 8 29 5 8 -2 62 -9 120 -14 77 -7 108 -14 117 -26 15 -21 63 -12 89 16 21 24 82 25 125 3 25 -12 28 -18 19 -30 -25 -29 18 -26 61 5 23 17 48 31 55 31 15 0 74 48 74 60 0 14 -64 33 -104 31 -32 -3 -38 0 -33 12 4 12 -2 17 -25 19 -42 4 -46 22 -8 38 64 27 79 64 30 74 -63 12 -27 38 70 51 30 4 80 13 110 21 30 8 90 14 134 14 57 0 84 4 96 15 27 24 125 38 282 39 81 1 140 4 130 8 -10 4 1 7 28 7 29 0 40 -2 31 -8 -25 -16 72 -23 104 -7 32 15 245 32 245 19 0 -10 341 -8 438 2 l72 8 0 -37 c0 -27 -4 -36 -17 -36 -16 -1 -15 -2 2 -12 11 -6 23 -16 28 -22 5 -8 11 -6 20 5 6 9 19 18 27 22 12 4 11 6 -2 6 -14 1 -18 10 -18 36 0 19 1 35 3 35 1 0 67 10 147 21 271 39 506 51 595 29 39 -10 64 -10 118 0 58 10 71 10 78 -1 8 -12 11 -11 19 1 6 10 10 11 10 3 0 -10 24 -12 98 -9 108 5 275 8 338 7 34 -1 43 -5 47 -22 5 -19 11 -21 44 -16 21 4 48 7 61 7 21 0 22 4 22 73 0 64 -3 75 -26 96 -14 14 -33 25 -42 26 -10 0 -23 5 -30 9 -9 5 -21 0 -33 -13 -25 -26 -45 -27 -59 -1 -14 25 -75 28 -88 4 -9 -16 -14 -16 -63 2 -30 10 -58 22 -64 26 -12 10 -42 10 -48 1 -2 -5 -2 -2 -1 4 7 30 -23 61 -73 77 -17 6 -23 3 -23 -8 0 -9 -9 -16 -20 -16 -11 0 -20 5 -20 10 0 6 -13 10 -30 10 -22 0 -28 -4 -24 -15 8 -21 -23 -30 -50 -15 -13 7 -33 9 -45 5 -25 -8 -71 18 -71 39 0 7 -7 19 -15 26 -8 7 -15 22 -15 34 0 18 -6 21 -39 21 -22 1 -39 -3 -38 -9 1 -5 -14 -13 -33 -17 -32 -8 -73 0 -155 31 -12 5 -39 2 -64 -7 -24 -8 -54 -13 -66 -10 -17 3 -27 -4 -39 -24 -13 -21 -25 -29 -54 -31 -20 -2 -38 -9 -38 -15 -1 -7 -2 -20 -3 -28 0 -9 -11 -15 -26 -15 -14 0 -25 -4 -25 -10 0 -20 -59 -10 -86 15 -24 23 -29 24 -37 10 -11 -20 -25 -112 -33 -220 -3 -44 -10 -84 -15 -89 -17 -18 -29 9 -30 70 -2 63 -22 211 -42 309 l-12 60 -36 -3 c-21 -2 -40 1 -44 7 -9 16 -15 14 -65 -18z m-2402 -972 c31 -1 47 -4 35 -6 -13 -2 -23 -7 -23 -11 0 -4 -22 -5 -50 -4 -36 3 -50 8 -50 19 0 10 6 13 16 9 9 -3 41 -7 72 -7z">
      </path>
      <path id="pTm199DwJ"
        d="M3459 2503 c-1 -4 0 -12 1 -18 2 -9 4 -28 8 -90 1 -15 8 -25 18 -25 13 0 13 -2 2 -14 -16 -15 -12 -86 4 -86 6 0 8 15 6 34 -2 19 -1 33 3 31 3 -3 9 21 12 53 4 31 9 72 13 90 5 26 3 32 -10 32 -9 0 -16 -5 -16 -10 0 -7 -6 -7 -20 0 -11 6 -21 7 -21 3z">
      </path>
    </g>
  </g>
  <g id="l1VYbs95032j73eRHiZq3UK" fill="none" stroke="rgb(172,90,41)" stroke-width="10" style="transform: none;">
    <g>
      <path id="pxQHkzYk2"
        d="M2370 3381 l-24 -7 24 -17 c23 -16 16 -17 -170 -17 -141 0 -191 3 -180 11 12 8 10 9 -10 5 -14 -3 -45 -6 -70 -6 -60 0 -33 -19 30 -21 l45 -2 -40 -7 c-36 -6 -33 -7 27 -9 37 0 70 4 73 9 4 6 36 8 83 5 42 -4 127 -2 187 3 63 5 111 6 113 1 5 -12 62 -11 62 1 0 6 -13 10 -29 10 -34 0 -50 16 -24 23 17 4 17 5 0 6 -10 0 -15 6 -12 11 7 11 -46 12 -85 1z">
      </path>
      <path id="p3VOsp83N"
        d="M2678 3380 c-75 -9 -68 -20 13 -21 41 -1 63 -4 50 -6 -19 -4 -21 -7 -10 -14 10 -6 6 -9 -16 -9 -22 0 -26 -3 -15 -10 8 -5 41 -7 75 -5 211 15 346 29 351 36 3 5 -55 10 -128 11 l-133 1 135 12 135 13 -205 -2 c-113 0 -226 -3 -252 -6z">
      </path>
      <path id="pbyj2prMg" d="M3555 3380 c-12 -5 1 -6 35 -3 30 3 57 7 59 9 9 8 -75 2 -94 -6z"></path>
      <path id="phkWHztdZ" d="M2645 3330 c3 -5 13 -10 21 -10 8 0 12 5 9 10 -3 6 -13 10 -21 10 -8 0 -12 -4 -9 -10z">
      </path>
      <path id="p17M29rx2F" d="M2315 3310 l-40 -7 40 -1 c22 0 49 3 60 8 l20 9 -20 -1 c-11 -1 -38 -4 -60 -8z"></path>
      <path id="p15lvPdGS2"
        d="M2960 3311 c-63 -4 -120 -9 -125 -13 -6 -4 -42 -3 -79 2 -38 5 -78 5 -90 0 -16 -7 -7 -9 34 -11 51 -1 52 -2 20 -9 -19 -4 -46 -13 -60 -19 l-25 -11 27 5 c15 3 29 1 32 -4 3 -5 -9 -11 -26 -15 -44 -9 -22 -29 32 -29 27 0 37 -3 28 -8 -9 -6 -1 -9 22 -10 l35 -1 -33 -8 c-38 -9 -54 -20 -29 -20 10 0 17 -4 17 -10 0 -5 -23 -10 -51 -10 -31 0 -48 -4 -44 -10 3 -5 16 -10 28 -10 22 -1 22 -1 3 -15 -11 -8 -16 -15 -12 -15 4 0 1 -7 -8 -15 -15 -16 -11 -44 8 -57 6 -4 1 -8 -12 -8 -13 0 -20 -4 -17 -10 3 -6 18 -7 32 -4 18 5 24 3 19 -5 -4 -7 0 -11 11 -11 15 0 15 -2 4 -9 -9 -6 -22 -6 -33 0 -15 8 -18 6 -18 -11 0 -19 4 -20 38 -14 35 6 36 5 17 -10 -20 -15 -20 -15 3 -16 13 0 36 -7 51 -15 16 -8 31 -12 34 -8 3 3 13 -2 22 -10 13 -14 13 -17 0 -31 -8 -8 -15 -19 -15 -25 0 -18 -18 -12 -23 7 -3 11 -5 7 -6 -10 0 -14 -4 -28 -8 -31 -5 -2 -2 -2 5 0 9 2 11 -3 7 -16 -6 -18 2 -19 166 -21 153 -1 171 1 159 15 -18 21 -10 22 180 30 91 3 210 12 265 18 55 7 123 9 150 5 74 -9 302 -8 450 3 72 5 180 12 242 15 85 5 116 11 127 23 14 15 9 16 -57 18 -157 4 -778 4 -872 0 -76 -3 -108 -1 -135 11 -25 11 -75 17 -170 19 -356 7 -429 13 -451 39 -15 18 -3 32 13 16 7 -7 30 -11 53 -11 25 1 31 3 15 6 -14 2 -34 8 -45 12 -11 5 -40 15 -65 22 -29 9 -38 15 -25 17 77 11 84 31 12 33 -23 1 -55 5 -72 9 -30 8 -30 8 8 9 20 0 37 5 37 10 0 5 10 12 23 14 19 4 18 4 -5 6 -45 2 -32 21 15 23 l42 1 -45 6 c-38 6 -28 8 63 15 103 8 137 20 80 29 -16 3 1 3 37 1 36 -1 83 1 105 5 36 6 37 8 17 15 -13 4 -60 6 -105 3 -53 -3 -66 -2 -37 3 25 4 41 8 35 10 -5 2 15 7 45 11 34 4 -8 6 -112 5 -92 -2 -165 1 -162 5 3 5 49 9 102 9 66 0 92 3 82 10 -8 5 -58 10 -110 11 -94 1 -96 16 -2 18 23 1 42 6 42 11 0 6 43 10 108 10 59 0 114 5 122 10 12 8 11 9 -5 8 -11 -1 -72 -4 -135 -7z">
      </path>
      <path id="pdu4EszBZ" d="M3338 3303 c28 -2 76 -2 105 0 28 2 5 3 -53 3 -58 0 -81 -1 -52 -3z"></path>
      <path id="pSlr50Qav"
        d="M2155 3292 c35 -6 30 -7 -40 -13 -44 -4 7 -5 113 -3 126 3 192 1 192 -6 0 -5 -19 -11 -42 -12 -37 -1 -34 -2 17 -7 l60 -6 -34 -17 c-19 -10 -53 -18 -75 -18 -23 0 -72 -5 -110 -10 -54 -8 -71 -8 -77 2 -6 9 -36 13 -98 13 -49 0 -87 -3 -84 -7 2 -5 23 -8 47 -8 23 0 46 -4 52 -9 5 -5 20 -11 34 -14 23 -4 22 -4 -5 -6 -16 -1 -52 -8 -80 -16 l-50 -15 42 4 c24 2 46 0 49 -5 3 -5 60 -10 127 -10 78 -1 111 -4 92 -9 l-30 -8 35 -2 c33 -2 32 -3 -13 -10 -64 -11 -71 -20 -16 -20 32 0 40 -3 29 -10 -12 -8 -8 -10 15 -11 17 0 41 -5 55 -10 17 -6 2 -7 -45 -3 -38 3 -72 10 -76 16 -8 13 -149 1 -149 -13 0 -5 19 -8 43 -6 23 2 53 0 67 -4 21 -7 19 -8 -12 -6 -21 2 -38 -1 -38 -5 0 -4 18 -8 40 -8 22 0 40 -4 40 -9 0 -6 32 -13 70 -17 39 -3 70 -10 70 -15 0 -4 8 -10 18 -12 9 -3 1 -5 -18 -6 -26 0 -31 2 -20 9 13 8 13 10 -2 10 -9 0 -20 -4 -23 -10 -3 -6 -33 -8 -70 -5 -37 3 -67 1 -70 -5 -4 -6 15 -10 47 -11 l53 -1 -55 -8 c-30 -4 -122 -11 -205 -15 -238 -12 -266 -15 -275 -27 -7 -9 -76 -16 -167 -17 -35 -1 -63 -6 -63 -11 0 -6 3 -9 8 -9 4 1 16 0 27 -1 11 -2 0 -6 -24 -9 -64 -9 -66 -31 -2 -31 52 0 83 -19 34 -21 -18 -1 -8 -5 27 -12 l55 -11 -55 -7 c-36 -4 -2 -6 98 -7 96 -1 152 2 152 8 0 6 7 10 15 10 8 0 15 -5 15 -10 0 -7 78 -10 230 -10 127 1 228 5 225 10 -3 4 0 10 6 12 9 3 9 10 0 26 -7 13 -16 20 -20 17 -5 -3 -11 2 -15 10 -3 8 -12 15 -21 15 -8 0 -15 7 -15 15 0 9 9 15 21 15 18 0 20 2 9 16 -8 8 -9 14 -4 13 5 -1 34 -1 64 1 41 1 50 4 35 10 -15 6 -8 9 28 9 29 1 55 7 63 16 14 13 13 15 -6 15 -14 0 -20 5 -18 18 2 13 -5 18 -30 20 -29 3 -32 5 -20 19 7 9 12 19 10 22 -1 3 14 8 35 11 l38 5 -30 12 -30 11 30 2 c26 1 27 3 10 10 -18 7 -17 8 10 15 26 7 27 9 10 16 -11 4 -38 9 -60 10 -38 2 -38 2 -7 6 51 7 37 20 -30 31 l-63 9 50 3 c39 1 44 4 25 9 -24 7 -24 7 9 14 18 4 47 7 63 7 25 0 28 2 19 14 -10 12 -8 14 11 9 18 -4 20 -3 8 6 -8 6 -21 11 -28 11 -7 0 -25 9 -40 19 -23 17 -50 20 -177 24 -82 3 -132 2 -110 -1z m75 -122 c0 -5 -11 -10 -25 -10 -14 0 -25 5 -25 10 0 6 11 10 25 10 14 0 25 -4 25 -10z m178 -107 c-10 -2 -28 -2 -40 0 -13 2 -5 4 17 4 22 1 32 -1 23 -4z m-454 -189 c21 -8 21 -57 1 -74 -18 -15 -65 1 -65 22 1 50 22 68 64 52z">
      </path>
      <path id="ptObNJ5TI" d="M3072 3283 c37 -2 100 -2 140 0 40 1 10 3 -67 3 -77 0 -110 -1 -73 -3z"></path>
      <path id="pdUFZkSOb" d="M2005 3230 c22 -4 47 -4 55 1 10 5 -5 8 -40 8 -55 -1 -55 -1 -15 -9z"></path>
      <path id="p1OvA2bGw"
        d="M3227 3214 c-3 -4 -21 -10 -39 -15 -25 -7 -19 -7 26 -4 70 6 111 24 55 25 -20 0 -38 -3 -42 -6z"></path>
      <path id="pfFWixLR5"
        d="M2885 3110 l-70 -6 65 -2 c36 -1 97 -4 135 -6 60 -4 63 -4 20 3 -27 4 -57 10 -65 13 -8 2 -46 1 -85 -2z"></path>
      <path id="p1H1cYlcz" d="M1952 3078 c-9 -4 31 -7 91 -7 59 -1 107 3 107 7 0 10 -172 10 -198 0z"></path>
      <path id="pi5u0ingK"
        d="M4005 2229 c-88 -4 -182 -13 -210 -19 -27 -5 -88 -15 -135 -20 -154 -19 -150 -18 -150 -56 0 -25 4 -34 18 -35 13 0 14 -2 2 -6 -8 -4 -21 -13 -27 -22 -9 -11 -15 -13 -20 -5 -5 6 -17 16 -28 22 -17 10 -18 11 -2 12 13 0 17 9 17 36 l0 37 -72 -8 c-97 -10 -438 -12 -438 -2 0 13 -213 -4 -245 -19 -32 -16 -129 -9 -104 7 9 6 -2 8 -31 8 -27 0 -38 -3 -28 -7 10 -4 -49 -7 -130 -8 -157 -1 -255 -15 -282 -39 -12 -11 -39 -15 -96 -15 -44 0 -104 -6 -134 -14 -30 -8 -80 -17 -110 -21 -97 -13 -133 -39 -70 -51 49 -10 34 -47 -30 -74 -38 -16 -34 -34 8 -38 23 -2 29 -7 25 -19 -5 -12 1 -15 33 -12 40 2 104 -17 104 -31 0 -12 -59 -60 -74 -60 -7 0 -32 -14 -55 -31 -43 -31 -86 -34 -61 -5 9 12 6 18 -19 30 -43 22 -104 21 -125 -3 -26 -28 -74 -37 -89 -16 -9 12 -40 19 -117 26 -58 5 -112 12 -120 14 -8 3 -22 0 -29 -5 -12 -7 -9 -10 11 -15 15 -4 29 -13 32 -21 3 -8 15 -14 26 -14 13 0 20 -7 20 -20 0 -13 9 -22 25 -26 44 -11 49 -29 15 -57 -17 -14 -26 -29 -20 -32 19 -12 10 -20 -50 -43 -33 -13 -59 -29 -57 -35 1 -7 -11 -13 -28 -14 -232 -18 -388 -54 -398 -94 -5 -18 -59 -29 -245 -49 -56 -6 -124 -18 -150 -25 -26 -8 -85 -22 -132 -30 -47 -9 -118 -23 -157 -32 l-73 -16 0 -38 c0 -32 4 -39 19 -39 11 0 23 4 26 10 3 5 32 10 63 10 41 0 53 3 42 10 -16 10 -11 11 65 15 71 3 174 18 227 31 32 8 102 17 155 21 54 3 103 9 108 13 11 8 84 27 128 34 15 3 42 12 59 20 17 9 37 16 45 16 8 0 12 4 9 8 -3 5 11 10 32 10 20 1 98 4 172 6 173 5 300 32 300 63 0 8 12 24 26 36 25 19 26 21 8 34 -10 7 -34 13 -53 13 -47 0 -82 10 -75 21 3 5 13 9 23 9 21 0 61 36 61 55 0 8 -8 15 -17 15 -15 0 -14 2 3 14 22 16 97 21 152 10 21 -4 40 -1 56 10 13 8 54 23 91 32 47 12 65 21 61 30 -6 16 16 29 66 38 26 5 45 17 63 40 30 39 31 46 8 46 -10 0 -29 9 -43 20 -14 11 -35 20 -47 20 -13 0 -23 5 -23 10 0 6 -7 10 -15 10 -8 0 -15 3 -15 8 1 14 29 44 52 56 45 23 164 54 248 65 88 11 159 37 160 59 0 6 12 12 28 12 15 0 44 3 64 6 34 6 36 5 31 -15 -4 -14 -1 -21 10 -21 8 0 14 -8 13 -17 -1 -16 9 -17 89 -16 119 3 174 12 210 33 34 20 125 34 200 31 96 -4 178 -10 181 -14 2 -2 -33 -9 -77 -17 -47 -7 -76 -16 -68 -20 8 -4 81 -10 163 -13 82 -4 152 -11 156 -16 3 -6 25 -13 48 -17 23 -3 39 -10 37 -14 -3 -4 2 -11 10 -14 9 -3 18 1 21 9 7 17 34 21 34 5 0 -17 39 -31 103 -34 215 -13 267 -19 267 -32 0 -10 16 -14 58 -16 104 -3 127 -5 162 -17 19 -6 51 -11 70 -11 20 0 41 -5 48 -12 11 -11 86 -19 164 -18 15 0 29 -4 33 -10 3 -5 35 -10 70 -10 41 0 65 -4 67 -12 3 -8 21 -12 48 -11 24 1 49 -2 55 -6 5 -5 47 -12 92 -15 46 -4 98 -12 115 -18 18 -6 67 -14 108 -19 181 -18 210 -22 210 -30 0 -5 7 -9 15 -9 13 0 15 33 15 236 l0 237 -61 -7 c-56 -7 -61 -6 -66 13 -4 17 -14 21 -47 22 -63 1 -230 -2 -338 -7 -74 -3 -98 -1 -98 9 0 8 -4 7 -10 -3 -8 -12 -11 -13 -19 -1 -7 11 -20 11 -78 1 -54 -10 -80 -10 -118 -1 -79 19 -81 19 -250 10z m-1557 -126 c-10 -2 -26 -2 -35 0 -10 3 -2 5 17 5 19 0 27 -2 18 -5z">
      </path>
      <path id="pt91mzV4Z" d="M1298 1353 c12 -2 30 -2 40 0 9 3 -1 5 -23 4 -22 0 -30 -2 -17 -4z"></path>
      <path id="pNxF51epn" d="M1412 1353 c-31 -12 6 -23 71 -22 69 1 70 2 27 10 -25 4 -54 10 -65 12 -11 2 -26 2 -33 0z">
      </path>
    </g>
  </g>
  <g id="l25dkuSPPX3ypQNeH37VXqx" fill="none" stroke="rgb(206,115,53)" stroke-width="10" style="transform: none;">
    <g>
      <path id="pvOc6WWVB"
        d="M2455 3381 c-3 -5 3 -12 12 -14 17 -4 17 -5 0 -6 -24 -1 -11 -21 14 -21 21 0 25 20 7 38 -14 14 -25 15 -33 3z">
      </path>
      <path id="p15q5INo57" d="M2610 3374 l-25 -15 25 6 c14 4 45 11 70 15 l45 7 -45 1 c-25 1 -56 -6 -70 -14z"></path>
      <path id="pLqNfbIdf" d="M2788 3383 c12 -2 32 -2 45 0 12 2 2 4 -23 4 -25 0 -35 -2 -22 -4z"></path>
      <path id="p1B9lnSrDL"
        d="M2655 3351 c-11 -5 -23 -7 -27 -5 -4 3 -9 0 -12 -5 -3 -5 3 -11 14 -14 11 -3 18 -1 14 4 -3 5 12 9 33 10 21 1 49 5 63 9 21 7 17 8 -20 8 -25 0 -54 -3 -65 -7z">
      </path>
      <path id="pAxKXh8E4" d="M2520 3330 c0 -5 9 -10 21 -10 11 0 17 5 14 10 -3 6 -13 10 -21 10 -8 0 -14 -4 -14 -10z">
      </path>
      <path id="pHSLOdxV7" d="M2672 3314 c-14 -15 -7 -17 22 -5 15 6 16 9 5 13 -8 3 -20 -1 -27 -8z"></path>
      <path id="pC76J9u3Z"
        d="M2387 3314 c-3 -4 -32 -10 -64 -14 l-58 -7 76 -2 c60 -1 82 -5 102 -22 21 -16 31 -18 47 -9 25 14 26 23 1 15 -13 -4 -25 2 -39 20 -19 23 -51 33 -65 19z">
      </path>
      <path id="p12Sqt9j2c" d="M2642 3276 c-1 -14 4 -17 21 -11 12 4 38 10 57 14 33 7 32 8 -21 12 -48 3 -55 2 -57 -15z">
      </path>
      <path id="pnIxoDHl4"
        d="M2607 3256 c-4 -9 3 -16 19 -19 32 -6 75 3 68 14 -3 5 -16 6 -29 3 -12 -3 -26 -1 -29 5 -10 15 -23 14 -29 -3z">
      </path>
      <path id="p13hvnC1z6" d="M2506 3231 c-14 -5 -16 -10 -8 -15 7 -4 22 0 34 8 24 17 9 21 -26 7z"></path>
      <path id="p1FgOsfkc9"
        d="M2644 3205 c14 -15 14 -18 -4 -37 -24 -26 -25 -34 -4 -42 8 -3 12 -2 9 4 -4 6 14 10 44 10 28 0 51 5 51 10 0 6 -7 10 -17 10 -25 0 -9 11 29 20 l33 8 -35 1 c-26 1 -31 4 -20 11 11 7 7 9 -15 8 -16 -1 -43 1 -59 5 -26 7 -27 7 -12 -8z">
      </path>
      <path id="pkmGKZN0b"
        d="M2400 3201 l-25 -8 25 -5 c16 -4 8 -6 -25 -8 l-50 -3 63 -9 c67 -11 81 -24 30 -31 l-33 -4 37 -1 c20 -1 48 -6 62 -12 17 -6 26 -6 26 0 0 6 -4 10 -10 10 -5 0 -10 6 -10 13 0 15 -35 47 -53 48 -6 1 -1 5 13 9 l25 8 -25 0 c-14 0 -36 -3 -50 -7z">
      </path>
      <path id="pK1b9AC9Z"
        d="M2654 3109 c-3 -6 -1 -15 5 -20 6 -5 9 -6 6 -3 -3 4 3 13 13 20 16 12 16 13 0 14 -9 0 -20 -5 -24 -11z"></path>
      <path id="pfVEoRp0g"
        d="M2460 3100 c-13 -9 -13 -10 0 -10 8 -1 30 -3 48 -4 18 -2 34 -1 36 3 3 4 -3 7 -12 8 -9 1 -26 4 -37 7 -11 4 -27 2 -35 -4z">
      </path>
      <path id="pHDQM8xp5"
        d="M2453 3068 c37 -13 34 -23 -8 -23 -19 0 -34 -3 -32 -6 1 -3 -5 -14 -13 -24 -14 -17 -13 -18 29 -12 25 3 41 3 35 -1 -16 -12 -16 -42 1 -42 9 0 15 6 14 13 -3 25 1 38 11 32 6 -3 10 4 10 18 0 28 -29 57 -56 56 -14 0 -12 -3 9 -11z">
      </path>
      <path id="p15QIucziu"
        d="M2633 3065 c-7 -8 -13 -17 -13 -20 0 -12 28 -35 42 -35 10 0 10 2 -1 9 -7 5 -13 20 -13 35 0 14 -1 26 -2 26 0 -1 -7 -7 -13 -15z">
      </path>
      <path id="pKKrjcvkl"
        d="M2616 3001 c-4 -5 0 -13 7 -18 8 -4 17 -15 20 -23 4 -12 6 -11 6 3 1 14 5 16 19 8 11 -6 24 -6 33 0 11 7 11 9 -4 9 -11 0 -15 4 -11 12 5 8 0 9 -16 5 -13 -3 -29 -2 -36 4 -8 7 -14 7 -18 0z">
      </path>
      <path id="pZRf72c7X"
        d="M2668 2943 c-19 -5 -25 -23 -8 -23 6 0 10 -8 10 -19 0 -10 7 -24 16 -32 14 -12 15 -34 3 -79 -6 -21 69 -39 82 -19 12 20 11 29 -3 25 -7 -1 -10 -1 -5 1 4 3 8 17 8 31 1 17 3 21 6 10 5 -19 23 -25 23 -7 0 6 7 17 15 25 13 14 13 17 0 31 -9 8 -19 13 -22 10 -3 -4 -18 0 -34 8 -15 8 -38 15 -51 15 -22 1 -22 1 -4 15 20 15 20 15 0 14 -10 -1 -27 -3 -36 -6z">
      </path>
      <path id="p8QOzeEYg"
        d="M2385 2920 c15 -6 6 -9 -35 -10 -30 -2 -59 -2 -64 -1 -5 1 -4 -5 4 -13 11 -14 9 -16 -9 -16 -12 0 -21 -6 -21 -15 0 -8 7 -15 15 -15 9 0 18 -7 21 -15 4 -8 10 -13 15 -10 4 3 13 -4 19 -16 9 -17 8 -23 -5 -33 -15 -11 -13 -13 16 -13 48 -2 109 7 109 16 0 4 -17 13 -39 19 -31 10 -38 17 -38 37 0 14 5 25 11 25 12 1 44 26 65 53 12 16 10 17 -35 16 -37 0 -44 -3 -29 -9z">
      </path>
      <path id="p17RAi1GbJ"
        d="M2283 2113 c-24 -2 -43 -9 -43 -16 -1 -21 -73 -48 -160 -58 -84 -11 -203 -42 -248 -65 -23 -12 -51 -42 -52 -56 0 -5 7 -8 15 -8 8 0 15 -4 15 -10 0 -5 10 -10 23 -10 12 0 33 -9 47 -20 14 -11 33 -20 43 -20 23 0 22 -7 -8 -46 -18 -23 -37 -35 -63 -40 -50 -9 -72 -22 -66 -38 4 -9 -14 -18 -61 -30 -37 -9 -78 -24 -91 -32 -16 -11 -35 -14 -56 -10 -55 11 -130 6 -152 -10 -17 -12 -18 -14 -3 -14 9 0 17 -7 17 -15 0 -19 -40 -55 -61 -55 -10 0 -20 -4 -23 -9 -7 -11 28 -21 75 -21 19 0 43 -6 53 -13 18 -13 17 -15 -8 -34 -14 -12 -26 -28 -26 -36 0 -31 -127 -58 -300 -63 -74 -2 -152 -5 -172 -6 -21 0 -35 -5 -32 -10 3 -4 -1 -8 -9 -8 -8 0 -28 -7 -45 -16 -17 -8 -44 -17 -59 -20 -44 -7 -117 -26 -128 -34 -5 -4 -54 -10 -108 -13 -53 -4 -123 -13 -155 -21 -53 -13 -156 -28 -227 -31 -76 -4 -81 -5 -65 -15 11 -7 -1 -10 -42 -10 -31 0 -60 -4 -63 -10 -3 -5 -15 -10 -26 -10 -18 0 -19 -9 -19 -250 0 -215 2 -250 15 -250 8 0 20 9 27 20 14 23 34 26 40 8 3 -9 9 -8 22 5 10 9 22 17 27 17 6 0 3 7 -6 16 -19 20 -7 37 28 39 39 2 79 17 98 36 26 26 69 25 69 -1 0 -17 7 -20 40 -20 l40 0 0 40 c0 22 -4 40 -10 40 -15 0 -12 29 4 46 20 20 39 18 56 -6 26 -36 147 -26 240 20 19 10 47 20 62 24 15 3 33 12 40 19 7 7 35 23 63 37 27 14 56 31 63 38 7 6 26 12 41 12 15 0 51 7 79 15 47 14 54 14 68 0 19 -19 28 -19 44 0 7 8 27 15 44 15 19 0 42 9 55 21 17 16 25 18 36 9 12 -10 22 -9 50 4 24 12 46 15 70 10 27 -5 35 -3 35 9 0 21 24 28 73 22 23 -3 35 -2 27 2 -26 13 -20 28 17 49 27 14 37 16 41 6 6 -18 53 -14 71 6 9 11 33 22 54 26 21 4 35 11 33 15 -3 4 7 6 22 3 24 -5 26 -4 13 12 -12 14 -12 18 5 30 11 8 25 11 34 6 18 -9 40 -3 40 12 0 5 6 16 13 23 30 35 37 45 37 59 0 8 6 17 13 19 9 4 9 8 -2 15 -8 6 -11 17 -7 28 4 11 10 14 14 8 4 -5 21 -9 37 -9 47 3 51 5 35 15 -12 8 -12 12 -2 18 11 7 11 11 0 19 -7 6 -20 13 -28 15 -8 3 4 5 26 4 27 0 40 -5 37 -12 -9 -25 16 -23 32 2 9 15 13 24 9 21 -21 -12 -32 19 -18 51 13 31 29 47 18 18 -3 -8 0 -17 7 -22 9 -5 10 -2 6 10 -8 20 39 70 56 59 6 -4 8 2 5 15 -4 13 -2 20 6 19 6 -1 10 4 8 12 -2 7 5 22 14 32 16 18 15 19 -29 19 -25 0 -49 -5 -53 -11 -3 -6 -17 -9 -30 -6 -13 2 -24 0 -24 -4 0 -5 7 -9 16 -9 14 0 14 -3 3 -16 -11 -13 -9 -14 14 -9 32 8 35 -5 6 -23 -12 -8 -18 -19 -15 -28 3 -8 -1 -14 -10 -14 -8 0 -12 5 -8 11 4 7 -2 9 -17 7 -16 -2 -24 2 -24 12 0 10 -11 15 -34 16 -19 0 -36 5 -39 12 -2 8 9 12 32 12 26 0 36 4 36 15 0 9 13 21 28 28 16 7 27 18 25 25 -3 7 4 12 19 12 13 0 29 4 37 9 7 5 31 3 56 -5 41 -12 44 -11 60 9 9 12 13 15 9 7 -6 -12 -4 -12 12 1 10 9 35 24 54 34 19 10 45 27 58 38 12 11 32 22 44 24 12 2 26 7 32 12 23 19 133 32 178 21 23 -6 53 -14 66 -17 12 -3 22 -10 22 -16 0 -6 3 -7 7 -4 4 4 19 -4 34 -19 14 -14 33 -26 41 -28 39 -5 133 -88 125 -109 -4 -11 4 -19 26 -27 18 -6 33 -9 33 -8 1 2 11 -5 22 -15 12 -11 26 -16 31 -12 7 4 11 -7 11 -29 0 -20 5 -36 10 -36 6 0 10 5 10 11 0 7 10 5 25 -5 14 -9 29 -14 34 -12 5 3 20 -3 34 -14 14 -11 39 -20 56 -20 22 0 31 -5 31 -16 0 -11 6 -15 20 -11 10 3 21 0 23 -6 2 -6 9 -7 17 -2 23 14 113 17 121 3 5 -8 12 -7 24 5 13 13 21 15 37 6 11 -6 32 -12 46 -14 15 -1 28 -8 30 -14 2 -6 21 -11 43 -11 21 0 39 -4 39 -10 0 -5 14 -10 31 -10 17 0 37 -6 45 -14 9 -10 31 -14 66 -11 48 2 49 2 13 -5 l-40 -7 39 -1 c25 -1 48 -10 63 -24 13 -12 23 -16 23 -10 0 19 135 16 154 -3 8 -8 25 -15 38 -15 13 0 33 -7 44 -15 10 -8 40 -15 66 -15 49 0 98 -14 109 -31 3 -6 47 -10 98 -10 50 0 91 -4 91 -8 0 -12 64 -31 88 -25 12 4 29 1 37 -6 8 -6 23 -9 35 -5 22 7 27 -4 8 -23 -9 -9 -5 -12 18 -12 18 0 35 8 44 20 15 21 44 25 124 14 49 -7 66 -34 21 -34 -33 0 -22 -28 14 -36 43 -9 91 -37 92 -54 0 -10 2 -11 6 -2 6 16 43 15 43 -2 0 -7 7 -19 15 -26 11 -9 15 -9 15 -1 0 7 9 9 25 5 l25 -6 0 281 c0 243 -2 281 -15 281 -8 0 -15 4 -15 9 0 8 -29 12 -210 30 -41 5 -90 13 -108 19 -17 6 -69 14 -115 18 -45 3 -87 10 -92 15 -6 4 -31 7 -55 6 -27 -1 -45 3 -48 11 -2 8 -26 12 -67 12 -35 0 -67 5 -70 10 -4 6 -18 10 -33 10 -78 -1 -153 7 -164 18 -7 7 -28 12 -48 12 -19 0 -51 5 -70 11 -35 12 -58 14 -162 17 -42 2 -58 6 -58 16 0 13 -52 19 -267 32 -64 3 -103 17 -103 34 0 16 -27 12 -34 -5 -3 -8 -12 -12 -21 -9 -8 3 -13 10 -10 14 2 4 -14 11 -37 14 -23 4 -45 11 -48 17 -4 5 -74 12 -156 16 -82 3 -155 9 -163 13 -8 4 21 13 68 20 44 8 79 15 77 17 -3 4 -85 10 -181 14 -75 3 -166 -11 -200 -31 -36 -21 -91 -30 -210 -33 -80 -1 -90 0 -89 16 1 9 -5 17 -13 17 -10 0 -14 7 -10 20 5 21 9 21 -80 13z m314 -82 c-33 -12 5 -34 45 -26 29 7 31 6 19 -9 -9 -11 -29 -16 -62 -16 -50 0 -58 7 -37 28 9 9 9 12 -2 13 -19 1 19 18 40 18 10 0 9 -3 -3 -8z m-78 -17 c10 -9 -66 -3 -79 6 -10 7 -1 8 30 4 25 -4 47 -8 49 -10z m-51 -34 c7 0 10 -4 7 -10 -3 -5 -19 -7 -34 -4 -16 3 -37 2 -47 -4 -20 -10 -44 -6 -44 8 0 10 55 19 85 14 11 -2 26 -4 33 -4z m-602 -309 c-10 -11 -15 -24 -12 -30 7 -11 -12 -26 -21 -17 -3 3 5 21 18 40 13 19 26 33 28 30 2 -2 -4 -13 -13 -23z m157 -58 c12 -12 -15 -33 -42 -32 -16 1 -19 3 -9 6 10 2 15 10 11 19 -5 14 27 21 40 7z m-23 -83 c0 -5 -7 -10 -15 -10 -8 0 -15 5 -15 10 0 6 7 10 15 10 8 0 15 -4 15 -10z m1983 -57 c-13 -2 -33 -2 -45 0 -13 2 -3 4 22 4 25 0 35 -2 23 -4z m485 -60 c-10 -2 -26 -2 -35 0 -10 3 -2 5 17 5 19 0 27 -2 18 -5z m-2588 -23 c0 -5 -9 -10 -20 -10 -11 0 -20 5 -20 10 0 6 9 10 20 10 11 0 20 -4 20 -10z m-542 -37 c-10 -2 -28 -2 -40 0 -13 2 -5 4 17 4 22 1 32 -1 23 -4z m172 -12 c43 -8 42 -9 -27 -10 -39 0 -74 3 -77 8 -8 12 13 19 39 14 11 -2 40 -8 65 -12z">
      </path>
      <path id="p10MZ7NsdD" d="M2413 2103 c9 -2 25 -2 35 0 9 3 1 5 -18 5 -19 0 -27 -2 -17 -5z"></path>
      <path id="pVPM6Eav4" d="M3778 1463 c12 -2 32 -2 45 0 12 2 2 4 -23 4 -25 0 -35 -2 -22 -4z"></path>
      <path id="pHf4ee2w9" d="M4178 1383 c12 -2 32 -2 45 0 12 2 2 4 -23 4 -25 0 -35 -2 -22 -4z"></path>
      <path id="pjzFGg5Zp" d="M913 1025 c-17 -19 -16 -42 2 -49 26 -10 45 5 45 35 0 32 -25 40 -47 14z"></path>
    </g>
  </g>
  <g id="l5YpMoJSZs1qpt7R50e6fHZ" fill="none" stroke="rgb(220,145,74)" stroke-width="10" style="transform: none;">
    <g>
      <path id="poZBY7GMu" d="M2493 3365 c12 -26 29 -34 25 -13 -3 13 -23 38 -31 38 -3 0 0 -11 6 -25z"></path>
      <path id="pEWJy95Y2"
        d="M2591 3376 c-16 -19 12 -35 48 -29 42 6 37 13 -10 13 -43 1 -44 1 -19 15 17 10 20 14 9 15 -9 0 -22 -6 -28 -14z">
      </path>
      <path id="p1419v8Nh" d="M2555 3330 c3 -5 25 -10 47 -10 51 0 45 9 -12 16 -28 3 -40 1 -35 -6z"></path>
      <path id="pRGen4koS"
        d="M2440 3312 c0 -14 39 -46 47 -39 3 4 1 7 -5 7 -7 0 -12 5 -12 10 0 6 11 10 24 10 14 0 28 5 31 10 4 6 -12 10 -39 10 -25 0 -46 -4 -46 -8z">
      </path>
      <path id="pbor7z3zm"
        d="M2608 3281 c-9 -11 -14 -22 -11 -25 4 -3 -16 -6 -43 -7 -43 -1 -46 -2 -21 -9 32 -10 77 3 77 21 0 6 6 9 14 6 15 -6 30 16 19 27 -10 10 -18 7 -35 -13z">
      </path>
      <path id="p1D2AsY96K"
        d="M2504 3283 c3 -6 -2 -16 -11 -22 -10 -6 -13 -10 -8 -11 6 0 17 5 25 10 13 8 13 11 1 22 -9 8 -12 9 -7 1z">
      </path>
      <path id="pk2boEQ5N"
        d="M2450 3200 c-14 -4 -19 -8 -13 -9 19 -2 53 -34 53 -50 0 -23 11 -5 14 23 3 20 -1 26 -18 27 -19 1 -18 2 4 9 20 6 21 8 5 8 -11 0 -31 -4 -45 -8z">
      </path>
      <path id="pGVAutIzU"
        d="M2628 3191 c-9 -11 -14 -22 -11 -25 4 -3 2 -6 -4 -6 -6 0 -9 -9 -6 -20 3 -11 12 -20 19 -20 22 0 16 -17 -8 -25 -13 -4 -26 -7 -31 -6 -4 1 -2 -8 5 -19 7 -11 16 -20 21 -20 4 0 5 5 1 12 -5 8 -2 9 9 5 10 -3 17 -2 17 3 0 5 -8 11 -17 14 -10 3 -7 4 7 2 19 -2 26 2 26 16 0 10 -8 21 -18 24 -23 7 -23 15 1 41 10 11 16 25 12 31 -5 8 -12 6 -23 -7z">
      </path>
      <path id="pXrxvKA4Y"
        d="M2506 3115 c-3 -8 0 -15 7 -15 7 -1 -1 -7 -18 -15 -16 -7 -25 -14 -18 -14 6 -1 15 -10 18 -21 4 -11 11 -17 17 -14 6 4 5 10 -3 15 -11 7 -10 9 4 9 10 0 28 10 40 21 18 19 19 21 4 15 -14 -4 -20 0 -24 14 -6 24 -19 26 -27 5z m29 -35 c-3 -5 -16 -10 -28 -9 -21 0 -21 1 -2 9 28 12 37 12 30 0z">
      </path>
      <path id="p4QuC6wEf"
        d="M2613 3034 c4 -4 0 -15 -9 -25 -14 -16 -14 -18 7 -30 23 -12 23 -12 4 -20 -17 -6 -17 -8 -2 -8 9 -1 17 -8 17 -16 0 -8 5 -15 11 -15 5 0 9 -8 8 -17 -1 -10 3 -29 8 -43 6 -14 7 -27 2 -30 -5 -3 -5 -19 -1 -35 7 -24 14 -30 38 -32 27 -3 28 -2 6 7 -19 8 -21 13 -12 29 14 28 12 56 -5 71 -8 7 -15 21 -15 31 0 11 -4 19 -9 19 -5 0 -12 12 -16 27 -3 15 -14 32 -23 39 -16 12 -16 13 1 19 22 9 22 21 0 29 -10 4 -14 4 -10 0z">
      </path>
      <path id="pjC1aD1Kv"
        d="M2486 2997 c-16 -12 -16 -15 -4 -28 16 -16 13 -39 -5 -39 -7 0 -27 -16 -46 -35 -19 -19 -39 -35 -46 -35 -7 0 -12 -11 -12 -25 0 -20 7 -27 38 -37 43 -12 51 -28 17 -29 -13 0 -17 -3 -10 -6 17 -7 62 5 62 16 0 5 -13 14 -29 21 -44 18 -47 39 -9 74 18 16 32 33 31 37 -2 4 6 10 16 14 15 4 19 15 17 45 0 22 -1 40 -2 40 0 0 -8 -6 -18 -13z">
      </path>
      <path id="peFT0lJ6I" d="M2513 2753 c15 -2 39 -2 55 0 15 2 2 4 -28 4 -30 0 -43 -2 -27 -4z"></path>
      <path id="p3bCgwtZW"
        d="M2565 2030 c-12 -5 -15 -9 -5 -9 11 -1 11 -4 2 -13 -21 -21 -13 -28 37 -28 33 0 53 5 62 16 12 15 10 16 -19 9 -40 -8 -78 14 -45 26 12 5 13 8 3 8 -8 0 -24 -4 -35 -9z">
      </path>
      <path id="phOC7qMJ4" d="M2440 2020 c8 -5 30 -10 49 -10 45 0 37 6 -19 14 -31 4 -40 3 -30 -4z"></path>
      <path id="p17ucpGaUe"
        d="M2383 1983 c-18 -2 -33 -8 -33 -13 0 -14 24 -18 44 -8 10 6 31 7 47 4 15 -3 31 -1 34 4 3 6 0 10 -7 10 -7 0 -22 2 -33 4 -11 2 -35 1 -52 -1z">
      </path>
      <path id="pAThEGcY8"
        d="M2510 1960 c-25 -5 -54 -14 -65 -20 -12 -6 -28 -12 -38 -14 -9 -1 -27 -11 -39 -23 -13 -11 -39 -28 -58 -38 -19 -10 -44 -25 -54 -34 -16 -13 -18 -13 -12 -1 4 8 0 5 -9 -7 -16 -20 -19 -21 -60 -9 -25 8 -49 10 -56 5 -8 -5 -24 -9 -37 -9 -15 0 -22 -5 -19 -12 2 -7 -9 -18 -25 -25 -15 -7 -28 -19 -28 -28 0 -11 -10 -15 -36 -15 -23 0 -34 -4 -32 -12 3 -7 20 -12 39 -12 23 -1 34 -6 34 -16 0 -10 8 -14 24 -12 15 2 21 0 17 -7 -4 -6 0 -11 8 -11 9 0 13 6 10 14 -3 9 3 20 15 28 29 18 26 31 -6 23 -23 -5 -25 -4 -14 9 11 13 11 16 -3 16 -9 0 -16 4 -16 9 0 4 11 6 24 4 13 -3 27 0 30 6 4 6 28 11 53 11 44 0 45 -1 29 -19 -9 -10 -16 -25 -14 -32 2 -8 -2 -13 -8 -12 -8 1 -10 -6 -6 -19 3 -13 1 -19 -5 -15 -17 11 -64 -39 -56 -59 4 -12 3 -15 -6 -10 -7 5 -10 14 -7 22 11 29 -5 13 -18 -18 -14 -32 -3 -63 18 -51 4 3 0 -6 -9 -21 -16 -25 -41 -27 -32 -2 3 7 -10 12 -37 12 -22 1 -34 -1 -26 -4 8 -2 21 -9 28 -15 11 -8 11 -12 0 -19 -10 -6 -10 -10 2 -18 16 -10 12 -12 -35 -15 -16 0 -33 4 -37 9 -4 6 -10 3 -14 -8 -4 -11 -1 -22 7 -28 11 -7 11 -11 2 -15 -7 -2 -13 -11 -13 -20 0 -8 -6 -21 -12 -28 -30 -33 -38 -45 -38 -54 0 -14 -22 -20 -40 -11 -9 5 -23 2 -34 -6 -17 -12 -17 -16 -5 -30 13 -16 11 -17 -13 -12 -15 3 -25 1 -22 -3 2 -4 -12 -11 -33 -15 -21 -4 -45 -15 -54 -26 -18 -20 -65 -24 -71 -6 -4 10 -14 8 -41 -6 -37 -21 -43 -36 -17 -49 8 -4 -4 -5 -27 -2 -49 6 -73 -1 -73 -22 0 -12 -8 -14 -35 -9 -24 5 -46 2 -70 -10 -28 -13 -38 -14 -50 -4 -11 9 -19 7 -36 -9 -13 -12 -36 -21 -55 -21 -17 0 -37 -7 -44 -15 -16 -19 -25 -19 -44 0 -14 14 -21 14 -68 0 -28 -8 -64 -15 -79 -15 -15 0 -34 -6 -41 -12 -7 -7 -36 -24 -63 -38 -28 -14 -56 -30 -63 -37 -7 -7 -25 -16 -40 -19 -15 -4 -43 -14 -62 -24 -59 -29 -104 -40 -166 -40 -48 0 -62 4 -74 20 -17 24 -36 26 -56 6 -16 -17 -19 -46 -4 -46 6 0 10 -18 10 -40 l0 -40 -40 0 c-33 0 -40 3 -40 20 0 26 -43 27 -69 1 -19 -19 -59 -34 -98 -36 -35 -2 -47 -19 -28 -39 9 -9 12 -16 6 -16 -5 0 -17 -8 -27 -17 -13 -13 -19 -14 -22 -5 -6 18 -26 15 -40 -8 -7 -11 -19 -20 -27 -20 -13 0 -15 -45 -15 -340 l0 -340 2545 0 2545 0 0 579 0 579 -22 6 c-13 3 -25 1 -26 -5 -5 -14 -32 9 -32 27 0 17 -37 18 -43 2 -4 -9 -6 -8 -6 2 -1 17 -49 45 -92 54 -36 8 -47 36 -14 36 45 0 28 27 -21 34 -80 11 -109 7 -124 -14 -9 -12 -26 -20 -44 -20 -23 0 -27 3 -18 12 19 19 14 30 -8 23 -12 -4 -27 -1 -35 5 -8 7 -25 10 -37 6 -24 -6 -88 13 -88 25 0 4 -41 8 -91 8 -51 0 -95 4 -98 10 -11 17 -60 31 -109 31 -26 0 -56 7 -66 15 -11 8 -31 15 -44 15 -13 0 -30 7 -38 15 -19 19 -154 22 -154 3 0 -6 -10 -2 -23 10 -15 14 -38 23 -63 24 l-39 1 40 7 c36 7 35 7 -13 5 -35 -3 -57 1 -66 11 -8 8 -28 14 -45 14 -17 0 -31 5 -31 10 0 6 -18 10 -39 10 -22 0 -41 5 -43 11 -2 6 -15 13 -30 14 -14 2 -35 8 -46 14 -16 9 -24 7 -37 -6 -12 -12 -19 -13 -24 -5 -8 14 -98 11 -121 -3 -8 -5 -15 -4 -17 2 -2 6 -13 9 -23 6 -14 -4 -20 0 -20 11 0 11 -9 16 -31 16 -17 0 -42 9 -56 20 -14 11 -29 17 -34 14 -5 -2 -20 3 -34 12 -15 10 -25 12 -25 5 0 -6 -4 -11 -10 -11 -5 0 -10 16 -10 36 0 22 -4 33 -11 29 -5 -4 -18 0 -27 8 -9 9 -21 17 -27 18 -42 8 -63 22 -58 36 8 21 -86 104 -125 109 -8 2 -27 15 -43 30 -16 15 -29 24 -29 18 0 -5 -4 -5 -8 1 -21 29 -135 48 -202 35z m158 -133 c46 -45 47 -49 49 -109 2 -71 -10 -92 -64 -114 -47 -20 -111 -16 -163 9 -39 19 -47 29 -64 79 -19 53 -19 60 -5 100 20 58 81 91 152 85 41 -4 55 -11 95 -50z m1155 -364 c-13 -2 -33 -2 -45 0 -13 2 -3 4 22 4 25 0 35 -2 23 -4z m400 -80 c-13 -2 -33 -2 -45 0 -13 2 -3 4 22 4 25 0 35 -2 23 -4z m-3263 -372 c0 -30 -19 -45 -45 -35 -30 12 -8 63 28 64 12 0 17 -8 17 -29z">
      </path>
      <path id="p19NNeJdEF"
        d="M1851 1664 c-13 -19 -21 -37 -18 -40 9 -9 28 6 21 17 -3 6 2 19 12 30 9 10 15 21 13 23 -2 3 -15 -11 -28 -30z">
      </path>
      <path id="p11h0HsRAR"
        d="M1983 1606 c4 -9 -1 -17 -11 -19 -10 -3 -7 -5 9 -6 27 -1 54 20 42 32 -13 14 -45 7 -40 -7z"></path>
      <path id="pIsBfq87h" d="M1970 1530 c0 -5 7 -10 15 -10 8 0 15 5 15 10 0 6 -7 10 -15 10 -8 0 -15 -4 -15 -10z">
      </path>
      <path id="pHvO58X4g" d="M3938 1473 c12 -2 32 -2 45 0 12 2 2 4 -23 4 -25 0 -35 -2 -22 -4z"></path>
      <path id="phndcCNou" d="M4433 1413 c9 -2 25 -2 35 0 9 3 1 5 -18 5 -19 0 -27 -2 -17 -5z"></path>
      <path id="pDpC4GY8A" d="M1840 1390 c0 -5 9 -10 20 -10 11 0 20 5 20 10 0 6 -9 10 -20 10 -11 0 -20 -4 -20 -10z">
      </path>
    </g>
  </g>
  <g id="l19MzUYKsE7hFsDHj884dLp" fill="none" stroke="rgb(249,213,110)" stroke-width="10" style="transform: none;">
    <g>
      <path id="pTvvEsNmm"
        d="M2565 3378 c-16 -6 -36 -12 -43 -14 -7 -2 -10 -9 -6 -15 5 -8 9 -8 14 1 9 15 56 9 53 -7 -2 -7 4 -10 13 -6 15 5 15 7 0 15 -14 8 -15 13 -5 24 6 8 10 14 8 13 -2 -1 -17 -6 -34 -11z">
      </path>
      <path id="pROtvT8Ke"
        d="M2525 3310 c-3 -5 -17 -10 -31 -10 -13 0 -24 -5 -24 -10 0 -11 37 -9 57 3 6 4 14 3 18 -3 8 -13 25 -13 25 0 0 6 -7 10 -16 10 -8 0 -12 5 -9 10 3 6 2 10 -4 10 -5 0 -13 -4 -16 -10z">
      </path>
      <path id="ptlCgIiyu" d="M2590 3291 c0 -17 18 -21 24 -6 3 9 0 15 -9 15 -8 0 -15 -4 -15 -9z"></path>
      <path id="palM7BOSi" d="M2583 3233 c9 -2 25 -2 35 0 9 3 1 5 -18 5 -19 0 -27 -2 -17 -5z"></path>
      <path id="paIjClmqt"
        d="M2490 3200 c-22 -7 -23 -8 -4 -9 18 -1 21 -6 18 -31 -3 -22 0 -28 11 -24 16 7 21 24 6 24 -12 0 -9 33 4 42 13 10 -1 9 -35 -2z">
      </path>
      <path id="p5Q2FAMnv" d="M2593 3147 c4 -11 -1 -17 -16 -20 -18 -4 -17 -5 6 -6 28 -1 38 21 15 35 -7 5 -9 2 -5 -9z">
      </path>
      <path id="pKBGZHRM6" d="M2567 3092 c-3 -4 16 -8 41 -8 36 -1 41 0 22 6 -34 11 -58 12 -63 2z"></path>
      <path id="p2ZpoOTRn" d="M2520 3060 c-19 -4 -21 -7 -9 -12 9 -3 22 -2 30 2 19 13 8 18 -21 10z"></path>
      <path id="p13WQimNQj"
        d="M2593 3008 c-14 -24 -11 -36 10 -42 29 -7 33 0 7 14 -17 9 -19 14 -9 26 6 8 9 14 6 14 -3 0 -9 -6 -14 -12z">
      </path>
      <path id="pRinUNeMF"
        d="M2504 2966 c5 -19 3 -32 -6 -38 -9 -7 -7 -8 7 -5 11 2 18 9 16 18 -2 8 -4 19 -5 26 -1 7 -6 16 -10 20 -5 4 -6 -5 -2 -21z">
      </path>
      <path id="prrUhFBKc"
        d="M2579 2949 c-10 -6 -6 -9 12 -9 48 0 59 -83 13 -100 -32 -13 -30 -23 7 -37 22 -9 30 -17 26 -28 -5 -10 0 -15 13 -15 16 0 17 4 9 32 -5 18 -5 34 0 37 5 4 4 17 -2 31 -5 14 -9 33 -8 43 1 9 -3 17 -8 17 -6 0 -11 6 -11 14 0 17 -33 27 -51 15z">
      </path>
      <path id="pO56a1pH2"
        d="M2472 2913 c2 -5 -12 -23 -30 -39 -38 -35 -35 -56 9 -74 31 -13 37 -25 17 -33 -7 -3 -1 -6 15 -6 17 -1 27 4 27 13 0 8 2 21 6 29 3 9 -6 19 -25 27 -35 14 -36 16 -17 52 9 17 11 30 5 34 -5 3 -8 1 -7 -3z">
      </path>
      <path id="pPmkOikch"
        d="M2481 1858 c-36 -18 -48 -32 -60 -66 -14 -40 -14 -47 5 -100 17 -50 25 -60 64 -79 52 -25 116 -29 163 -9 54 22 66 43 64 114 -2 60 -3 64 -49 109 -40 39 -54 46 -95 50 -37 3 -58 -1 -92 -19z m146 -50 c39 -37 27 -95 -27 -123 -33 -17 -54 -12 -92 23 -42 39 -35 89 17 120 27 16 74 7 102 -20z">
      </path>
    </g>
  </g>
  <g id="l7CTzdQAebdyc0IrUj5rbkQ" fill="none" stroke="rgb(252,244,199)" stroke-width="10" style="transform: none;">
    <g>
      <path id="pVPLEFLfw" d="M2510 3380 c0 -13 50 -13 70 0 11 7 4 10 -27 10 -24 0 -43 -4 -43 -10z"></path>
      <path id="pMTixiVBw" d="M2530 3350 c0 -5 14 -10 31 -10 17 0 28 4 24 10 -3 6 -17 10 -31 10 -13 0 -24 -4 -24 -10z">
      </path>
      <path id="pAup5nBBp"
        d="M2537 3302 c-25 -27 -22 -52 6 -52 28 1 55 21 50 38 -3 7 5 12 21 12 14 0 26 5 26 10 0 18 -86 11 -103 -8z">
      </path>
      <path id="pHBPPRmLJ"
        d="M2540 3212 c-26 -18 -32 -41 -15 -54 6 -5 4 -12 -5 -18 -13 -8 -12 -10 3 -10 9 0 17 -7 17 -15 0 -11 11 -15 39 -15 52 0 65 20 14 21 -22 1 -29 4 -16 6 14 3 20 9 16 19 -3 8 -1 14 5 14 9 0 18 19 27 58 5 18 -55 14 -85 -6z">
      </path>
      <path id="pdPmFzDCe"
        d="M2546 3067 c3 -10 -2 -18 -14 -21 -19 -6 -35 -49 -24 -61 3 -3 7 -11 8 -18 1 -7 3 -18 5 -26 2 -8 -6 -17 -19 -20 -13 -3 -23 -10 -24 -16 0 -5 -4 -20 -9 -33 -12 -31 -13 -28 21 -42 25 -10 28 -16 23 -42 l-6 -29 63 3 c72 3 91 22 41 41 -37 14 -39 24 -7 37 46 17 35 100 -13 100 l-26 1 25 14 c18 10 20 14 8 15 -21 0 -17 28 6 45 15 12 15 14 1 29 -9 8 -15 19 -15 23 0 4 -11 9 -25 11 -18 3 -23 0 -19 -11z">
      </path>
      <path id="pk63btC0d"
        d="M2525 1828 c-52 -31 -59 -81 -17 -120 38 -35 59 -40 92 -23 54 28 66 86 27 123 -28 27 -75 36 -102 20z"></path>
    </g>
  </g>
</svg>