<svg xmlns="http://www.w3.org/2000/svg" width="240" height="240" viewBox="0 0 4648 3805">
  <path fill="none" stroke="#ffffff" stroke-width="50" d="M 2370.63,8.75
           C 2368.50,9.25 2364.13,11.12 2360.88,13.00
             2357.25,15.25 2351.25,17.12 2344.88,18.13
             2339.25,19.12 2332.63,20.50 2330.25,21.25
             2323.87,23.13 2319.50,22.75 2311.37,19.87
             2305.00,17.50 2303.37,17.37 2298.75,18.62
             2295.75,19.38 2288.87,21.25 2283.37,22.62
             2276.12,24.50 2271.62,26.50 2267.12,30.00
             2255.49,38.87 2250.24,39.25 2241.12,31.62
             2234.62,26.12 2228.36,23.37 2224.86,24.50
             2223.36,24.87 2218.49,28.87 2213.99,33.25
             2202.49,44.38 2197.86,46.25 2180.73,46.25
             2168.86,46.25 2165.48,45.75 2158.48,43.13
             2152.23,40.75 2147.73,40.00 2140.36,40.00
             2129.73,40.00 2125.48,38.62 2116.48,32.50
             2106.10,25.50 2100.48,28.00 2096.48,41.25
             2092.73,53.75 2090.72,55.00 2074.47,55.00
             2064.35,55.00 2060.10,55.50 2054.97,57.62
             2050.60,59.38 2044.22,60.37 2035.34,60.87
             2022.47,61.62 2022.34,61.62 2016.59,66.50
             2013.47,69.25 2005.22,75.12 1998.34,79.62
             1998.34,79.62 1985.84,87.75 1985.84,87.75
             1985.84,87.75 1977.71,86.88 1977.71,86.88
             1964.46,85.50 1963.21,85.63 1958.09,89.75
             1955.34,91.88 1950.21,94.75 1946.58,96.12
             1942.58,97.62 1938.08,100.63 1935.33,103.62
             1930.71,108.62 1930.46,108.75 1922.21,108.75
             1915.46,108.75 1912.71,109.38 1908.46,111.88
             1903.58,114.75 1901.95,115.00 1891.83,114.75
             1891.83,114.75 1880.58,114.38 1880.58,114.38
             1880.58,114.38 1871.33,123.13 1871.33,123.13
             1866.20,127.87 1856.95,135.25 1850.82,139.38
             1844.57,143.50 1832.82,153.37 1824.57,161.25
             1812.57,172.75 1807.57,176.62 1799.57,180.63
             1792.07,184.38 1786.94,188.25 1778.94,196.12
             1773.07,202.00 1764.94,209.12 1760.81,212.25
             1752.44,218.50 1736.44,226.25 1725.69,229.38
             1720.31,230.87 1716.81,233.13 1711.56,238.13
             1707.68,241.75 1702.56,245.50 1700.18,246.50
             1697.81,247.62 1693.31,250.50 1690.18,253.13
             1684.56,257.87 1673.68,263.75 1670.18,263.75
             1666.80,263.87 1656.05,270.50 1653.43,274.12
             1651.30,277.12 1650.80,279.50 1650.80,288.37
             1650.80,298.50 1650.68,299.12 1647.30,301.75
             1645.30,303.37 1640.55,305.63 1636.68,306.75
             1629.30,309.12 1623.80,312.50 1616.42,319.50
             1614.05,321.88 1608.67,324.87 1604.67,326.25
             1595.05,329.50 1594.17,330.37 1593.17,337.25
             1592.30,343.25 1590.17,345.87 1581.05,352.87
             1578.54,354.75 1575.17,358.75 1573.79,361.62
             1572.29,364.50 1569.17,368.50 1566.79,370.50
             1564.42,372.50 1561.17,377.00 1559.67,380.50
             1558.04,384.12 1554.54,388.87 1551.79,391.25
             1548.92,393.62 1544.42,399.12 1541.54,403.37
             1538.17,408.62 1533.41,413.37 1527.29,417.87
             1515.54,426.50 1510.16,435.75 1510.16,447.12
             1510.16,453.37 1509.54,455.50 1506.41,460.25
             1502.54,466.00 1497.41,479.62 1495.04,490.00
             1494.29,493.13 1492.16,498.13 1490.16,501.25
             1488.29,504.38 1485.41,511.12 1483.91,516.25
             1482.41,521.37 1479.53,530.25 1477.41,535.87
             1474.41,543.87 1473.78,547.50 1474.28,551.50
             1474.78,555.25 1473.91,561.00 1471.41,571.00
             1467.41,586.25 1466.78,587.62 1460.53,596.75
             1456.03,603.37 1455.53,607.00 1457.78,617.50
             1459.66,626.12 1457.91,632.62 1450.03,646.62
             1441.16,662.37 1435.28,681.25 1434.53,696.88
             1434.15,705.37 1432.65,713.75 1430.15,723.13
             1426.28,736.88 1425.53,739.62 1419.28,763.13
             1417.53,770.00 1414.03,779.50 1411.65,784.38
             1407.78,792.00 1407.15,794.75 1406.15,808.13
             1405.40,816.37 1405.15,831.25 1405.53,841.25
             1405.90,854.38 1405.65,860.87 1404.40,865.00
             1403.40,868.13 1402.65,871.88 1402.65,873.37
             1402.65,875.00 1401.03,881.25 1398.90,887.50
             1398.90,887.50 1395.15,898.75 1395.15,898.75
             1395.15,898.75 1396.53,924.62 1396.53,924.62
             1397.90,952.50 1398.15,950.75 1391.52,975.50
             1390.02,981.13 1388.90,989.25 1388.90,994.25
             1388.90,1003.87 1385.52,1018.25 1381.15,1026.75
             1376.15,1036.50 1377.40,1060.63 1383.52,1075.00
             1384.65,1077.63 1385.90,1086.50 1386.52,1096.75
             1387.52,1112.63 1388.02,1114.88 1392.02,1123.75
             1397.40,1135.63 1397.53,1139.88 1393.02,1145.00
             1389.90,1148.25 1388.27,1149.00 1379.65,1150.00
             1367.65,1151.50 1365.02,1153.00 1376.40,1151.88
             1391.90,1150.25 1396.15,1147.63 1397.28,1138.88
             1397.78,1135.00 1397.15,1132.12 1393.90,1125.37
             1390.27,1117.75 1389.77,1115.13 1388.77,1100.00
             1388.02,1089.25 1386.77,1080.63 1385.27,1076.25
             1381.77,1066.50 1378.90,1051.25 1378.90,1043.37
             1378.90,1038.63 1380.40,1032.87 1384.02,1023.00
             1388.52,1011.13 1389.40,1007.50 1390.15,994.88
             1390.90,984.50 1392.15,977.25 1394.65,969.25
             1398.53,957.12 1398.78,951.00 1397.65,915.00
             1397.15,898.00 1397.40,896.25 1400.40,886.88
             1405.78,870.25 1406.65,863.13 1407.03,835.63
             1407.40,803.50 1408.65,792.38 1413.03,784.88
             1414.78,781.88 1418.03,772.87 1420.15,765.00
             1422.28,757.12 1425.28,746.37 1426.65,741.25
             1433.90,715.37 1435.28,708.50 1436.03,697.50
             1436.90,681.50 1442.16,664.38 1451.91,646.25
             1459.41,632.12 1459.53,631.75 1459.16,623.13
             1458.16,601.00 1457.91,602.50 1463.66,594.38
             1467.78,588.37 1469.66,583.87 1472.66,571.88
             1475.28,561.50 1476.28,555.37 1475.78,551.88
             1475.28,548.13 1476.03,544.25 1478.78,536.75
             1480.78,531.25 1483.41,523.00 1484.53,518.62
             1485.66,514.25 1488.79,506.62 1491.54,501.75
             1494.16,496.88 1496.41,491.75 1496.41,490.37
             1496.41,486.37 1503.79,467.25 1507.79,461.12
             1510.79,456.37 1511.41,454.12 1511.41,447.37
             1511.41,436.50 1515.66,429.25 1527.79,419.25
             1532.91,415.12 1539.04,409.00 1541.42,405.50
             1543.79,402.12 1548.67,396.50 1552.17,393.13
             1555.79,389.62 1559.79,384.12 1561.29,380.63
             1562.79,377.25 1566.04,372.87 1568.42,370.87
             1570.79,368.87 1574.04,364.62 1575.79,361.37
             1577.42,358.25 1580.80,354.25 1583.30,352.62
             1589.80,348.25 1593.42,343.37 1594.30,337.75
             1595.30,331.88 1596.30,331.00 1605.67,327.50
             1610.05,325.75 1615.67,322.25 1619.67,318.62
             1627.05,312.00 1630.30,310.12 1639.80,307.00
             1643.80,305.63 1647.55,303.37 1649.68,300.87
             1652.68,297.37 1652.80,296.37 1652.05,289.25
             1650.68,276.25 1655.80,270.00 1672.30,264.50
             1678.68,262.37 1684.31,259.50 1688.31,256.12
             1691.68,253.25 1697.31,249.62 1700.81,247.87
             1704.18,246.12 1709.56,242.12 1712.68,238.87
             1717.18,234.25 1720.19,232.50 1727.69,230.12
             1749.31,223.25 1767.32,211.37 1784.82,192.37
             1786.94,190.00 1793.94,185.25 1800.32,181.88
             1809.94,176.88 1814.20,173.62 1824.57,163.13
             1832.57,154.87 1841.95,147.12 1850.82,141.12
             1858.45,136.12 1868.08,128.37 1872.33,124.12
             1880.58,115.75 1880.33,115.87 1894.83,116.25
             1902.45,116.37 1904.58,116.00 1909.33,113.25
             1913.58,110.75 1916.46,110.00 1922.58,110.00
             1929.96,110.00 1930.58,109.75 1936.21,104.50
             1939.46,101.50 1944.33,98.37 1947.08,97.50
             1949.83,96.62 1954.59,94.00 1957.59,91.75
             1963.46,87.25 1966.96,86.62 1975.59,88.62
             1978.46,89.38 1982.09,89.25 1984.84,88.50
             1989.59,87.25 2004.72,77.62 2016.47,68.50
             2023.22,63.25 2023.59,63.13 2035.84,62.25
             2043.34,61.75 2051.35,60.37 2055.72,58.87
             2061.22,56.88 2066.22,56.25 2074.85,56.25
             2082.72,56.25 2087.72,55.63 2090.10,54.38
             2093.73,52.50 2096.85,47.25 2098.35,40.37
             2099.48,35.00 2103.60,30.00 2106.85,30.00
             2108.23,30.00 2113.35,32.37 2118.23,35.25
             2126.60,40.37 2127.35,40.63 2140.11,41.25
             2149.86,41.88 2154.98,42.75 2159.48,44.75
             2164.61,47.12 2167.73,47.50 2180.36,47.50
             2198.99,47.50 2205.61,45.00 2214.11,35.00
             2223.49,23.75 2228.61,23.13 2238.87,31.88
             2249.37,40.87 2255.74,40.75 2267.37,31.75
             2271.37,28.62 2275.99,25.87 2277.75,25.50
             2279.50,25.12 2286.00,23.37 2292.37,21.75
             2292.37,21.75 2303.87,18.75 2303.87,18.75
             2303.87,18.75 2311.12,21.25 2311.12,21.25
             2319.00,24.00 2325.75,24.38 2331.00,22.50
             2332.88,21.75 2338.63,20.63 2343.88,19.87
             2350.38,19.00 2356.00,17.12 2361.88,14.12
             2369.38,10.25 2371.26,9.75 2377.01,10.37
             2380.63,10.75 2389.01,12.87 2395.76,15.12
             2395.76,15.12 2407.88,19.25 2407.88,19.25
             2407.88,19.25 2416.63,17.00 2416.63,17.00
             2425.01,14.87 2425.39,14.87 2428.89,17.12
             2439.26,23.87 2447.64,29.62 2452.01,33.00
             2452.01,33.00 2456.76,36.88 2456.76,36.88
             2456.76,36.88 2480.14,36.88 2480.14,36.88
             2502.39,36.88 2503.64,37.00 2507.02,39.62
             2510.27,42.25 2511.65,42.37 2525.15,42.12
             2536.02,42.00 2541.90,42.50 2548.90,44.25
             2557.03,46.37 2559.03,46.37 2566.78,45.00
             2576.53,43.25 2579.65,43.75 2585.90,48.00
             2588.40,49.75 2593.28,51.62 2596.90,52.37
             2604.41,54.00 2619.41,61.00 2628.41,67.25
             2628.41,67.25 2634.66,71.50 2634.66,71.50
             2634.66,71.50 2649.91,70.75 2649.91,70.75
             2662.66,70.00 2665.91,70.25 2669.91,72.00
             2672.54,73.13 2678.66,74.50 2683.41,75.00
             2692.29,76.00 2705.92,80.25 2715.17,84.87
             2717.92,86.37 2721.42,87.50 2722.92,87.50
             2727.67,87.50 2733.54,91.25 2736.29,96.12
             2740.04,102.87 2741.92,104.00 2749.92,105.12
             2753.92,105.63 2758.42,107.25 2760.17,108.62
             2761.92,110.12 2765.67,112.37 2768.42,113.87
             2775.92,117.87 2777.80,119.87 2778.67,125.25
             2779.67,131.62 2782.42,133.37 2794.05,134.38
             2805.30,135.37 2809.55,136.75 2812.05,140.63
             2813.18,142.25 2817.55,144.87 2822.68,146.88
             2827.43,148.62 2833.55,151.75 2836.18,153.62
             2845.06,160.00 2846.68,160.50 2862.43,161.25
             2880.31,162.00 2880.31,162.00 2893.31,177.00
             2902.56,187.62 2919.94,200.37 2946.07,215.63
             2961.82,224.87 2964.07,226.88 2970.19,238.00
             2973.57,243.87 2978.95,250.12 2991.07,261.50
             2999.95,269.87 3009.82,278.87 3012.95,281.37
             3020.32,287.37 3031.70,303.87 3033.70,311.62
             3036.45,322.62 3039.08,324.87 3055.70,330.63
             3060.70,332.37 3062.08,333.62 3064.58,338.50
             3066.33,341.75 3069.71,346.37 3072.21,348.75
             3077.58,353.75 3080.33,359.38 3080.33,365.12
             3080.33,371.00 3084.96,378.00 3092.96,384.25
             3099.21,389.12 3100.21,390.63 3101.71,396.50
             3103.21,402.37 3104.71,404.38 3115.09,414.25
             3124.96,423.75 3126.96,426.37 3128.46,431.88
             3130.84,439.75 3136.71,445.75 3147.46,451.12
             3156.09,455.37 3157.96,457.62 3161.47,467.62
             3162.72,471.25 3165.72,478.62 3168.22,483.75
             3170.59,488.87 3173.47,495.63 3174.84,498.50
             3176.09,501.75 3179.97,506.62 3184.34,510.50
             3193.34,518.75 3195.34,522.50 3195.34,531.75
             3195.34,542.12 3199.09,548.25 3209.72,554.87
             3214.10,557.75 3218.60,561.25 3219.60,562.87
             3221.97,566.50 3227.85,589.00 3227.85,594.50
             3227.85,596.88 3227.22,601.12 3226.47,604.12
             3225.10,608.75 3225.35,610.12 3227.72,615.63
             3229.35,619.12 3232.22,626.88 3234.10,633.13
             3236.10,639.25 3239.22,648.25 3241.35,653.13
             3246.60,665.87 3248.35,674.00 3247.35,683.13
             3246.72,689.62 3247.10,692.25 3249.72,699.25
             3251.47,703.75 3252.85,709.62 3252.85,712.00
             3252.85,714.50 3253.73,719.50 3254.85,723.25
             3256.73,729.62 3256.60,730.37 3253.98,738.13
             3253.98,738.13 3251.22,746.25 3251.22,746.25
             3251.22,746.25 3254.48,756.62 3254.48,756.62
             3263.48,784.62 3264.10,788.25 3264.10,808.13
             3264.10,825.50 3264.35,827.38 3267.35,834.38
             3277.10,856.88 3277.10,856.88 3277.60,876.88
             3277.85,887.12 3278.10,898.37 3278.23,901.88
             3278.35,905.25 3277.60,914.62 3276.60,922.50
             3274.85,937.38 3274.73,941.13 3275.35,977.50
             3275.73,997.25 3275.48,1000.25 3273.10,1007.75
             3270.48,1015.50 3270.35,1018.50 3270.35,1053.37
             3270.35,1080.25 3270.73,1093.13 3271.98,1099.62
             3272.98,1104.50 3273.60,1109.88 3273.35,1111.50
             3273.10,1113.13 3271.73,1121.38 3270.35,1130.00
             3267.98,1145.00 3266.35,1160.87 3264.10,1193.13
             3262.98,1209.62 3260.73,1217.75 3252.60,1234.62
             3249.97,1240.25 3247.22,1248.25 3246.47,1252.50
             3245.72,1257.00 3243.85,1262.37 3241.60,1265.75
             3236.47,1273.88 3235.97,1277.50 3238.97,1284.25
             3240.60,1288.13 3243.35,1291.25 3247.35,1294.00
             3269.60,1309.25 3279.35,1326.88 3279.35,1351.88
             3279.35,1366.38 3277.35,1378.75 3269.73,1408.25
             3266.73,1420.00 3262.23,1439.62 3259.73,1452.00
             3257.23,1464.25 3254.35,1477.75 3253.35,1481.88
             3248.60,1500.50 3238.35,1529.25 3229.85,1547.25
             3224.85,1558.00 3219.60,1570.00 3218.47,1573.75
             3217.22,1577.50 3214.35,1584.50 3211.97,1589.38
             3209.60,1594.13 3205.22,1604.13 3202.22,1611.50
             3199.22,1618.75 3193.47,1631.12 3189.47,1639.00
             3181.59,1654.13 3172.97,1679.13 3167.22,1703.75
             3163.34,1720.25 3156.46,1740.87 3152.96,1746.75
             3151.71,1748.88 3149.46,1754.38 3147.96,1759.00
             3146.34,1763.62 3142.09,1772.37 3138.34,1778.37
             3129.09,1793.25 3125.59,1801.00 3117.84,1823.75
             3107.21,1855.13 3104.83,1859.13 3084.21,1880.63
             3078.58,1886.50 3071.08,1892.75 3065.95,1895.87
             3050.58,1905.00 3046.83,1908.25 3042.95,1916.12
             3039.33,1923.13 3039.20,1924.38 3038.45,1944.38
             3037.95,1958.25 3037.08,1966.75 3035.95,1969.62
             3034.95,1972.00 3033.20,1978.88 3032.08,1984.75
             3029.58,1998.62 3023.45,2018.88 3019.32,2026.75
             3016.57,2031.88 3016.07,2035.13 3015.32,2048.00
             3014.82,2056.38 3014.20,2063.88 3013.70,2064.50
             3013.32,2065.25 3012.45,2069.25 3011.70,2073.38
             3010.95,2078.25 3009.20,2082.75 3006.70,2086.38
             3004.07,2090.25 3002.45,2094.38 3001.57,2100.25
             3000.95,2104.88 2998.32,2113.25 2995.82,2119.00
             2992.32,2127.13 2991.07,2131.75 2990.45,2140.13
             2989.70,2149.88 2989.20,2151.63 2985.07,2157.63
             2981.70,2162.63 2980.32,2166.13 2979.70,2171.25
             2978.20,2185.00 2977.82,2186.00 2972.07,2192.13
             2966.57,2198.00 2966.44,2198.25 2967.19,2204.38
             2967.69,2207.75 2968.19,2218.75 2968.32,2228.75
             2968.57,2246.25 2971.32,2274.13 2974.07,2286.88
             2974.82,2290.25 2975.32,2297.63 2975.20,2303.13
             2975.07,2308.63 2975.82,2317.38 2976.95,2322.50
             2978.07,2327.75 2979.32,2342.00 2979.70,2355.00
             2980.57,2377.63 2982.07,2391.75 2985.82,2411.88
             2986.95,2417.38 2987.95,2448.06 2987.95,2454.56
             2988.00,2463.66 3000.34,2501.69 3000.44,2501.13
             3003.12,2502.10 2986.75,2445.88 2989.57,2435.88
             2989.32,2422.00 2988.32,2414.00 2984.70,2396.88
             2983.70,2392.00 2982.20,2375.13 2981.57,2359.38
             2980.82,2343.50 2979.45,2326.63 2978.45,2321.88
             2977.45,2317.00 2976.57,2307.38 2976.57,2300.38
             2976.57,2293.38 2975.95,2286.13 2975.20,2284.13
             2972.94,2278.13 2969.82,2246.50 2969.69,2227.50
             2969.57,2217.50 2969.07,2207.00 2968.57,2204.13
             2967.69,2199.25 2967.94,2198.63 2972.69,2193.50
             2978.70,2186.88 2979.70,2184.38 2980.82,2173.50
             2981.57,2166.63 2982.70,2163.75 2986.70,2157.88
             2991.07,2151.25 2991.57,2149.63 2992.32,2140.00
             2992.82,2132.00 2994.07,2126.88 2997.20,2119.38
             2999.57,2113.88 3002.07,2105.75 3002.82,2101.25
             3003.70,2096.00 3005.70,2090.63 3008.57,2086.00
             3010.95,2082.13 3012.82,2077.38 3012.82,2075.38
             3012.82,2073.38 3013.70,2068.63 3014.82,2064.88
             3016.07,2060.88 3016.95,2053.00 3017.20,2045.63
             3017.32,2034.62 3017.82,2032.25 3020.82,2026.38
             3024.83,2018.62 3031.83,1995.75 3033.95,1983.25
             3034.83,1978.50 3036.20,1972.75 3037.20,1970.50
             3038.20,1968.13 3039.20,1958.25 3039.70,1945.50
             3041.08,1915.00 3043.20,1911.25 3065.70,1897.63
             3081.83,1887.88 3104.83,1862.75 3110.46,1848.62
             3111.83,1844.87 3116.34,1832.50 3120.34,1821.12
             3128.46,1797.75 3129.34,1796.00 3138.59,1781.25
             3142.21,1775.38 3146.59,1766.63 3148.21,1761.88
             3149.84,1757.00 3152.96,1749.75 3154.96,1745.63
             3160.72,1734.25 3164.84,1720.75 3172.97,1686.88
             3176.22,1673.13 3185.72,1647.25 3189.59,1641.25
             3192.59,1636.63 3201.09,1618.62 3205.22,1607.88
             3206.59,1604.25 3209.60,1597.88 3211.60,1593.62
             3213.72,1589.50 3217.22,1581.12 3219.35,1575.25
             3221.35,1569.25 3226.72,1556.75 3231.22,1547.50
             3241.35,1526.50 3251.60,1496.25 3256.73,1472.50
             3264.23,1436.75 3269.10,1415.38 3272.85,1401.50
             3280.73,1371.50 3282.73,1352.88 3279.73,1338.25
             3275.85,1319.75 3266.23,1305.38 3249.85,1293.75
             3237.60,1285.00 3235.60,1277.50 3242.72,1266.50
             3245.35,1262.37 3247.10,1257.50 3247.97,1252.37
             3248.72,1248.00 3250.85,1241.38 3252.85,1237.50
             3260.73,1222.75 3264.23,1210.37 3265.35,1194.38
             3267.98,1158.37 3269.23,1144.88 3271.10,1134.38
             3275.60,1108.37 3275.60,1108.88 3273.48,1099.12
             3272.10,1091.88 3271.60,1081.25 3271.60,1053.13
             3271.60,1019.88 3271.85,1015.75 3274.10,1008.50
             3277.60,997.38 3278.48,981.75 3276.60,961.25
             3275.48,948.50 3275.48,941.50 3276.35,935.87
             3279.73,916.50 3280.60,901.62 3279.10,891.88
             3277.98,884.50 3277.98,880.37 3279.10,874.50
             3280.35,867.50 3280.23,866.00 3277.23,856.25
             3275.35,850.37 3272.10,842.00 3269.98,837.50
             3266.35,829.62 3266.10,828.63 3265.35,806.88
             3264.48,783.37 3263.98,780.50 3255.35,755.12
             3255.35,755.12 3252.72,747.12 3252.72,747.12
             3252.72,747.12 3255.48,738.63 3255.48,738.63
             3258.10,730.50 3258.23,730.00 3256.23,722.87
             3254.98,718.75 3254.10,713.25 3254.10,710.50
             3254.10,707.87 3252.85,703.13 3251.47,700.00
             3249.47,695.63 3248.85,691.25 3248.60,680.63
             3248.35,669.00 3247.72,665.50 3244.72,658.13
             3242.85,653.25 3238.85,642.37 3235.97,633.75
             3232.97,625.12 3229.72,616.00 3228.60,613.37
             3226.97,609.62 3226.72,607.62 3227.85,604.00
             3229.72,597.12 3229.35,590.25 3226.60,579.50
             3222.47,563.25 3220.35,559.62 3212.22,554.87
             3201.47,548.50 3197.47,543.00 3196.97,533.37
             3196.22,521.12 3195.72,520.00 3186.09,510.63
             3178.72,503.50 3176.47,500.37 3174.72,494.87
             3173.59,491.12 3170.97,485.25 3169.09,481.88
             3167.22,478.37 3164.34,472.00 3162.72,467.50
             3159.21,457.37 3155.71,453.50 3144.96,447.87
             3134.96,442.62 3130.84,438.13 3129.71,431.25
             3128.96,426.88 3127.09,424.38 3117.09,414.62
             3107.21,405.00 3104.96,402.25 3103.46,396.88
             3101.96,391.88 3099.83,389.00 3092.33,381.88
             3083.08,373.00 3082.71,372.37 3080.83,360.12
             3080.21,355.75 3078.71,353.50 3073.33,348.00
             3069.58,344.38 3066.58,340.50 3066.58,339.50
             3066.58,335.25 3060.33,330.25 3051.83,327.62
             3041.70,324.62 3037.33,320.50 3035.20,312.12
             3032.33,300.63 3023.58,289.62 2998.07,265.75
             2977.70,246.62 2973.69,242.25 2970.07,235.25
             2965.44,226.25 2961.44,222.62 2947.69,215.00
             2943.32,212.62 2931.44,205.12 2921.31,198.25
             2905.69,187.87 2901.44,184.38 2893.94,175.37
             2882.44,161.75 2879.06,160.12 2862.06,160.00
             2862.06,160.00 2849.43,160.00 2849.43,160.00
             2849.43,160.00 2839.31,153.75 2839.31,153.75
             2833.68,150.37 2826.43,146.75 2823.05,145.63
             2819.80,144.50 2815.18,141.62 2812.55,139.12
             2807.68,134.38 2802.05,132.62 2790.80,132.50
             2783.42,132.50 2781.92,131.25 2779.05,122.87
             2777.42,118.00 2776.17,116.62 2770.92,113.75
             2767.55,112.00 2762.42,108.87 2759.80,107.12
             2756.92,105.12 2753.30,103.75 2750.67,103.75
             2744.80,103.75 2742.29,102.12 2737.79,95.63
             2733.67,89.62 2728.54,86.25 2723.79,86.25
             2722.17,86.25 2718.54,85.12 2715.92,83.75
             2706.79,79.12 2689.66,73.75 2683.79,73.75
             2680.66,73.75 2675.91,72.75 2673.29,71.62
             2669.41,69.87 2664.79,69.38 2650.79,69.38
             2650.79,69.38 2633.03,69.38 2633.03,69.38
             2633.03,69.38 2628.28,65.50 2628.28,65.50
             2621.78,60.50 2604.91,52.62 2597.28,51.12
             2593.90,50.50 2588.53,48.25 2585.40,46.12
             2579.90,42.50 2579.28,42.37 2571.53,43.25
             2559.15,44.62 2555.52,44.50 2544.65,42.00
             2537.02,40.25 2532.02,40.00 2523.65,40.63
             2513.02,41.37 2512.40,41.37 2507.39,38.00
             2504.52,36.12 2500.77,34.62 2499.02,34.75
             2497.27,34.75 2487.89,35.12 2478.14,35.63
             2458.01,36.50 2459.39,36.88 2444.01,25.63
             2438.89,21.88 2432.26,17.50 2429.39,16.00
             2424.14,13.37 2424.14,13.37 2416.51,15.63
             2416.51,15.63 2408.76,18.00 2408.76,18.00
             2408.76,18.00 2398.63,14.62 2398.63,14.62
             2378.76,8.37 2375.88,7.75 2370.63,8.75 Z
           M 1355.02,1158.50
           C 1347.77,1163.13 1338.64,1173.50 1333.39,1183.00
             1324.14,1199.50 1315.64,1233.13 1312.52,1264.38
             1311.27,1278.50 1311.52,1281.25 1316.39,1305.63
             1318.39,1315.25 1320.64,1330.50 1321.39,1339.38
             1323.77,1368.25 1325.02,1377.00 1328.39,1388.25
             1330.27,1394.38 1332.89,1403.62 1334.52,1408.88
             1336.02,1414.00 1337.52,1418.88 1338.02,1419.50
             1339.27,1421.63 1353.52,1471.00 1356.40,1483.13
             1359.27,1495.50 1360.65,1507.25 1362.65,1535.63
             1364.40,1561.12 1365.65,1567.50 1374.02,1590.63
             1385.02,1621.25 1389.27,1630.38 1408.03,1662.75
             1411.03,1668.13 1415.90,1679.38 1418.90,1687.75
             1421.78,1696.25 1425.78,1706.50 1427.65,1710.63
             1439.15,1734.75 1472.03,1766.12 1491.41,1771.38
             1498.41,1773.25 1512.16,1773.25 1516.79,1771.38
             1521.91,1769.38 1529.66,1769.62 1531.91,1771.88
             1535.42,1775.50 1536.92,1783.00 1535.29,1789.25
             1533.54,1796.25 1534.54,1819.25 1537.04,1831.88
             1538.67,1839.38 1538.67,1842.00 1537.17,1850.38
             1536.17,1855.75 1535.67,1861.12 1535.92,1862.25
             1536.17,1863.37 1537.29,1870.25 1538.29,1877.50
             1539.29,1884.75 1540.67,1893.13 1541.29,1896.25
             1542.04,1899.38 1542.54,1906.75 1542.67,1912.75
             1542.67,1921.63 1543.29,1925.00 1545.79,1930.75
             1550.67,1941.75 1553.92,1953.50 1553.92,1960.00
             1553.92,1963.37 1554.54,1967.63 1555.29,1969.62
             1556.04,1971.50 1556.67,1977.88 1556.54,1983.75
             1556.54,1993.25 1556.92,1995.25 1560.42,2002.50
             1563.79,2009.50 1564.42,2012.63 1565.29,2025.00
             1566.67,2045.87 1566.54,2119.75 1565.17,2143.75
             1564.42,2155.13 1563.29,2179.88 1562.67,2198.75
             1561.92,2217.63 1560.79,2246.38 1560.17,2262.50
             1559.54,2278.63 1557.92,2323.38 1556.54,2361.88
             1555.04,2400.38 1553.67,2433.63 1553.29,2435.88
             1552.79,2442.29 1550.80,2569.33 1548.38,2569.75
             1549.51,2575.82 1555.88,2517.34 1553.29,2497.75
             1553.42,2479.38 1554.04,2449.13 1554.92,2430.63
             1556.67,2392.38 1559.79,2314.75 1561.42,2268.13
             1562.04,2250.88 1563.17,2220.63 1563.92,2200.75
             1564.54,2180.75 1565.79,2155.75 1566.42,2145.13
             1567.92,2122.00 1567.92,2042.88 1566.54,2022.88
             1565.67,2010.87 1565.04,2008.13 1561.92,2002.88
             1558.79,1997.50 1558.42,1995.50 1558.17,1985.00
             1557.92,1978.50 1557.29,1971.12 1556.54,1968.75
             1555.79,1966.38 1555.17,1961.75 1555.17,1958.50
             1555.17,1953.00 1551.04,1939.25 1545.92,1927.25
             1544.54,1924.13 1543.92,1918.88 1543.92,1910.87
             1543.92,1904.50 1543.17,1896.25 1542.17,1892.50
             1538.67,1878.75 1537.17,1858.37 1538.79,1849.13
             1540.04,1842.00 1539.92,1839.13 1538.42,1831.63
             1536.67,1823.62 1536.04,1805.75 1536.67,1782.12
             1536.79,1777.88 1536.04,1775.13 1534.29,1772.75
             1531.91,1769.62 1531.04,1769.38 1524.41,1769.62
             1493.04,1771.00 1492.66,1771.00 1482.66,1766.00
             1471.16,1760.38 1451.53,1743.25 1442.03,1730.63
             1432.40,1717.88 1427.53,1708.13 1420.28,1687.50
             1416.40,1676.63 1411.15,1664.87 1407.15,1658.13
             1391.15,1631.12 1384.65,1616.88 1373.77,1585.63
             1367.02,1565.87 1366.40,1563.13 1365.15,1547.50
             1362.65,1513.88 1361.15,1500.38 1358.90,1488.50
             1356.77,1477.75 1344.64,1434.13 1341.27,1425.38
             1340.52,1423.50 1336.89,1411.88 1333.27,1399.75
             1326.39,1377.25 1325.52,1371.75 1322.02,1331.25
             1321.64,1326.12 1319.52,1314.00 1317.52,1304.38
             1311.89,1278.00 1312.89,1255.63 1321.39,1219.38
             1328.14,1190.75 1340.27,1169.50 1355.40,1159.88
             1360.65,1156.50 1362.40,1155.00 1361.02,1155.00
             1360.77,1155.00 1358.15,1156.62 1355.02,1158.50 Z
           M 3000.20,2526.38
           C 3001.57,2523.88 3001.45,2517.88 2999.95,2515.38
             2999.45,2514.63 3001.07,2507.50 3000.07,2507.25
             2999.32,2507.00 2999.07,2505.63 2999.70,2504.00
             2999.70,2504.00 3000.57,2501.13 3000.57,2501.13
             3000.57,2501.13 3004.45,2504.13 3004.45,2504.13
             3006.70,2505.75 3020.57,2516.25 3035.33,2527.38
             3062.08,2547.63 3062.33,2547.75 3078.83,2567.88
             3087.96,2579.00 3096.08,2588.50 3096.96,2589.13
             3100.21,2591.00 3110.96,2595.38 3112.08,2595.13
             3112.71,2595.00 3114.08,2595.75 3115.21,2596.75
             3118.34,2599.50 3126.46,2602.75 3128.09,2601.75
             3128.84,2601.25 3129.09,2601.38 3128.71,2602.13
             3128.34,2602.75 3130.34,2603.88 3133.21,2604.63
             3137.84,2605.88 3138.21,2605.88 3136.09,2604.25
             3132.09,2601.38 3135.09,2602.25 3141.09,2605.75
             3144.21,2607.63 3147.09,2608.75 3147.46,2608.38
             3148.59,2607.25 3154.21,2610.50 3168.84,2620.88
             3183.59,2631.38 3201.09,2646.13 3200.59,2647.75
             3200.47,2648.25 3200.97,2648.75 3201.72,2648.75
             3203.84,2648.75 3214.10,2657.63 3213.35,2658.88
             3212.97,2659.50 3213.47,2660.00 3214.47,2660.00
             3215.47,2660.00 3218.72,2662.13 3221.72,2664.75
             3229.35,2671.25 3239.97,2679.38 3264.85,2697.63
             3264.85,2697.63 3286.10,2713.38 3286.10,2713.38
             3286.10,2713.38 3322.36,2726.25 3322.36,2726.25
             3322.36,2726.25 3358.49,2739.25 3358.49,2739.25
             3358.49,2739.25 3390.36,2758.63 3390.36,2758.63
             3425.37,2779.88 3451.50,2795.88 3455.87,2798.75
             3457.50,2799.75 3462.37,2803.00 3466.75,2805.88
             3471.12,2808.88 3475.50,2811.25 3476.37,2811.25
             3477.12,2811.25 3477.87,2811.75 3477.87,2812.38
             3477.87,2813.00 3480.00,2814.88 3482.62,2816.38
             3485.12,2818.00 3497.13,2827.13 3509.25,2836.88
             3525.00,2849.38 3538.13,2858.50 3555.76,2869.13
             3575.88,2881.25 3583.89,2886.88 3599.39,2900.25
             3609.76,2909.13 3629.89,2926.00 3644.14,2937.50
             3644.14,2937.50 3669.89,2958.50 3669.89,2958.50
             3669.89,2958.50 3700.15,2973.63 3700.15,2973.63
             3716.77,2982.00 3730.40,2989.13 3730.40,2989.75
             3730.40,2990.25 3731.90,2990.75 3733.90,2990.88
             3737.53,2991.00 3747.90,2996.13 3747.90,2997.75
             3747.90,2998.38 3748.65,2998.75 3749.65,2998.75
             3750.53,2998.75 3752.03,2999.63 3752.90,3000.63
             3753.78,3001.63 3754.90,3002.13 3755.53,3001.75
             3756.15,3001.38 3756.65,3001.63 3756.65,3002.13
             3756.65,3002.75 3759.53,3004.50 3762.90,3006.13
             3766.41,3007.75 3769.16,3009.63 3769.16,3010.13
             3769.16,3010.75 3769.78,3011.25 3770.66,3011.25
             3773.41,3011.25 3821.66,3040.50 3822.66,3042.75
             3822.91,3043.38 3823.79,3043.75 3824.66,3043.75
             3825.54,3043.75 3827.29,3044.75 3828.66,3046.00
             3829.91,3047.25 3831.41,3048.38 3832.04,3048.50
             3832.54,3048.63 3835.29,3049.88 3838.29,3051.25
             3876.42,3068.88 3914.17,3085.75 3932.92,3093.50
             3954.55,3102.38 3959.93,3105.13 3958.55,3106.50
             3958.18,3106.88 3959.55,3107.13 3961.68,3107.13
             3963.68,3107.13 3966.55,3108.13 3968.05,3109.50
             3969.55,3110.75 3970.93,3111.75 3971.18,3111.50
             3971.43,3111.38 3972.93,3111.25 3974.55,3111.25
             3976.55,3111.25 3976.80,3111.63 3975.55,3112.38
             3973.55,3113.75 3975.68,3115.25 3978.18,3114.38
             3979.18,3114.00 3980.80,3114.50 3981.68,3115.50
             3982.55,3116.63 3983.68,3117.25 3984.18,3116.88
             3984.68,3116.50 3985.80,3117.13 3986.68,3118.13
             3987.55,3119.13 3989.05,3120.00 3989.93,3120.00
             3990.93,3120.00 3991.68,3120.50 3991.68,3121.25
             3991.68,3121.88 3992.43,3122.13 3993.30,3121.88
             3994.05,3121.50 3996.30,3122.50 3998.18,3124.00
             4005.18,3129.88 4007.18,3131.25 4009.18,3131.25
             4010.18,3131.25 4013.06,3133.38 4015.43,3135.75
             4017.81,3138.13 4023.43,3141.88 4027.93,3144.00
             4055.81,3157.13 4054.94,3156.50 4059.94,3161.00
             4060.94,3162.00 4062.56,3162.38 4063.56,3162.00
             4064.69,3161.63 4065.44,3162.00 4065.44,3162.88
             4065.44,3163.75 4067.44,3165.25 4069.81,3166.25
             4072.19,3167.25 4074.19,3168.38 4074.19,3169.00
             4074.19,3169.50 4074.69,3169.88 4075.19,3169.75
             4079.44,3168.38 4161.07,3232.13 4181.82,3252.88
             4186.45,3257.38 4190.45,3260.75 4190.95,3260.38
             4191.33,3259.88 4191.70,3260.50 4191.70,3261.75
             4191.70,3262.88 4192.33,3263.50 4192.95,3263.13
             4193.70,3262.75 4194.20,3263.25 4194.20,3264.38
             4194.20,3265.50 4194.70,3266.13 4195.20,3265.75
             4196.20,3265.13 4202.33,3270.88 4202.83,3272.75
             4203.33,3274.50 4212.33,3283.25 4214.58,3284.13
             4215.70,3284.50 4216.70,3285.75 4216.70,3286.88
             4216.70,3287.88 4217.08,3288.63 4217.70,3288.63
             4219.70,3288.25 4221.70,3288.75 4221.58,3289.63
             4221.20,3292.25 4221.83,3293.75 4223.58,3293.75
             4224.58,3293.75 4231.96,3300.13 4239.83,3307.88
             4249.71,3317.38 4254.71,3321.50 4255.58,3320.63
             4256.46,3319.75 4256.71,3319.75 4256.58,3320.63
             4255.96,3322.63 4259.46,3327.25 4261.08,3326.75
             4261.83,3326.38 4264.71,3328.13 4267.33,3330.63
             4270.08,3333.00 4272.71,3335.00 4273.33,3335.00
             4273.96,3335.00 4276.46,3337.00 4278.71,3339.38
             4280.96,3341.88 4283.09,3343.75 4283.21,3343.50
             4283.71,3343.13 4288.96,3347.50 4291.59,3350.25
             4292.59,3351.50 4294.09,3352.50 4294.96,3352.50
             4295.71,3352.50 4296.96,3353.75 4297.84,3355.38
             4298.71,3356.88 4300.96,3358.88 4303.09,3359.88
             4305.09,3360.75 4308.96,3363.50 4311.59,3366.00
             4324.97,3378.75 4327.59,3381.00 4330.09,3381.75
             4331.59,3382.25 4333.09,3383.50 4333.47,3384.50
             4333.84,3385.50 4334.72,3386.00 4335.47,3385.63
             4336.09,3385.25 4336.72,3385.75 4336.72,3386.75
             4336.72,3387.88 4337.47,3388.75 4338.34,3388.75
             4339.22,3388.75 4343.34,3391.88 4347.34,3395.63
             4351.47,3399.38 4355.84,3402.75 4357.09,3403.13
             4358.22,3403.63 4359.22,3404.38 4359.22,3404.88
             4359.22,3405.38 4361.09,3406.38 4363.34,3407.25
             4365.47,3408.00 4369.09,3410.38 4371.22,3412.38
             4373.47,3414.50 4375.60,3415.75 4375.97,3415.38
             4376.35,3414.88 4376.72,3415.50 4376.72,3416.63
             4376.72,3417.75 4377.47,3418.75 4378.47,3418.75
             4379.47,3418.75 4380.72,3420.00 4381.10,3421.38
             4381.85,3423.50 4382.22,3423.75 4383.10,3422.38
             4383.72,3421.38 4384.22,3421.25 4384.22,3421.88
             4384.22,3422.63 4386.22,3425.38 4388.60,3427.88
             4390.97,3430.38 4392.97,3433.38 4392.97,3434.38
             4392.97,3435.38 4393.47,3436.25 4394.10,3436.25
             4394.72,3436.25 4399.97,3438.38 4405.72,3441.00
             4411.35,3443.63 4419.85,3447.50 4424.60,3449.50
             4429.23,3451.38 4432.98,3453.38 4432.98,3453.75
             4432.98,3454.25 4433.85,3455.63 4434.98,3457.00
             4435.98,3458.25 4436.48,3458.63 4435.98,3457.63
             4435.35,3456.50 4435.60,3456.13 4436.48,3456.75
             4437.35,3457.25 4437.98,3458.38 4437.98,3459.13
             4437.98,3460.00 4440.35,3461.88 4443.35,3463.50
             4446.23,3465.00 4449.23,3467.38 4449.85,3468.75
             4450.60,3470.13 4464.48,3492.38 4480.73,3518.38
             4496.98,3544.38 4510.99,3567.13 4511.86,3569.00
             4512.74,3571.00 4513.86,3572.50 4514.49,3572.50
             4515.11,3572.50 4515.24,3573.13 4514.86,3573.88
             4514.36,3574.63 4514.99,3576.13 4516.11,3577.25
             4518.61,3579.75 4519.86,3581.75 4558.37,3645.63
             4574.49,3672.38 4600.99,3718.88 4617.37,3748.75
             4633.62,3778.63 4647.25,3803.50 4647.62,3804.00
             4647.87,3804.63 3602.64,3805.00 2324.75,3805.00
             776.58,3805.00 1.25,3804.63 1.25,3803.75
             1.25,3803.13 1.88,3802.63 2.50,3802.88
             3.75,3803.13 5.50,3800.63 8.75,3793.50
             9.63,3791.63 11.38,3788.88 12.75,3787.63
             14.00,3786.25 15.00,3784.75 15.00,3784.38
             15.00,3784.00 17.88,3779.38 21.38,3774.25
             25.00,3768.75 30.88,3757.00 35.25,3746.50
             39.38,3736.38 43.25,3727.63 43.88,3727.00
             44.50,3726.25 45.00,3725.00 45.00,3724.13
             45.00,3722.63 52.38,3706.63 55.01,3702.50
             55.63,3701.50 63.88,3687.13 73.26,3670.63
             95.39,3631.63 137.51,3562.50 139.01,3562.50
             139.64,3562.50 139.89,3562.00 139.52,3561.50
             139.14,3560.88 155.64,3539.75 176.02,3514.63
             212.27,3470.13 213.77,3468.38 232.15,3452.88
             242.78,3443.88 252.28,3434.88 253.78,3432.13
             255.28,3429.63 256.90,3427.75 257.53,3428.13
             258.03,3428.50 258.90,3427.88 259.28,3426.75
             259.78,3425.50 259.53,3425.13 258.40,3425.75
             256.53,3426.88 260.65,3421.88 265.28,3417.38
             267.15,3415.50 268.28,3413.75 267.90,3413.38
             267.53,3413.00 269.65,3409.13 272.65,3404.75
             279.16,3395.50 280.78,3393.63 281.66,3394.50
             282.03,3394.88 282.91,3394.13 283.66,3392.75
             285.66,3389.00 304.03,3374.00 320.66,3362.50
             334.91,3352.63 348.91,3342.25 356.91,3335.50
             359.04,3333.75 364.91,3329.13 370.04,3325.25
             375.17,3321.38 381.04,3316.63 383.17,3314.75
             385.17,3312.75 387.67,3311.25 388.54,3311.25
             389.29,3311.25 390.04,3310.63 390.04,3310.00
             390.04,3309.25 391.04,3308.25 392.17,3307.88
             393.42,3307.38 395.92,3305.63 397.67,3303.88
             399.42,3302.13 404.04,3299.00 407.92,3297.00
             411.79,3295.00 414.67,3292.75 414.17,3292.13
             413.79,3291.38 414.04,3291.25 414.79,3291.75
             415.67,3292.25 418.29,3290.75 420.80,3288.25
             423.30,3285.75 425.92,3284.13 426.42,3284.50
             427.05,3284.88 427.55,3284.63 427.55,3284.00
             427.55,3282.38 587.44,3172.50 589.94,3172.50
             590.56,3172.50 591.31,3172.13 591.56,3171.50
             591.81,3171.00 600.06,3164.50 610.07,3156.88
             620.07,3149.38 638.69,3134.88 651.57,3124.75
             664.45,3114.63 675.45,3106.25 675.95,3106.25
             676.57,3106.25 677.82,3105.13 678.82,3103.88
             679.70,3102.50 680.95,3101.63 681.57,3102.00
             682.07,3102.38 682.57,3102.00 682.57,3101.38
             682.57,3100.63 683.45,3100.00 684.57,3100.00
             685.57,3100.00 686.20,3099.50 685.82,3098.88
             685.45,3098.25 686.82,3097.13 688.95,3096.25
             690.95,3095.38 693.20,3093.63 693.95,3092.25
             694.57,3091.00 695.70,3090.25 696.45,3090.63
             697.07,3091.13 697.58,3090.50 697.58,3089.50
             697.58,3088.38 698.33,3087.50 699.20,3087.50
             699.95,3087.50 702.70,3085.50 705.08,3083.13
             707.45,3080.75 709.83,3078.75 710.58,3078.75
             711.20,3078.75 712.58,3077.88 713.70,3076.88
             720.83,3069.88 727.20,3065.13 728.58,3065.63
             729.33,3065.88 730.08,3065.38 730.08,3064.38
             730.08,3063.38 730.95,3062.50 731.95,3062.50
             732.95,3062.50 734.95,3061.38 736.33,3060.00
             737.70,3058.63 739.45,3057.50 740.08,3057.50
             740.83,3057.50 741.95,3056.13 742.70,3054.50
             743.71,3052.50 744.96,3051.63 746.58,3051.88
             747.83,3052.13 748.58,3051.88 748.21,3051.25
             747.83,3050.63 748.71,3049.88 750.08,3049.38
             751.46,3048.88 752.33,3048.13 751.96,3047.50
             751.58,3046.88 752.83,3045.88 754.71,3045.50
             756.58,3045.00 758.96,3043.63 760.08,3042.38
             762.46,3039.63 852.84,2982.63 857.72,2980.88
             859.72,2980.13 861.34,2979.00 861.34,2978.38
             861.34,2977.75 862.84,2977.50 864.72,2978.00
             866.72,2978.38 867.47,2978.38 866.72,2978.00
             865.84,2977.63 865.09,2976.88 865.09,2976.25
             865.09,2975.25 871.09,2973.13 872.84,2973.50
             873.47,2973.63 873.84,2973.25 873.84,2972.50
             873.84,2971.88 874.72,2971.63 875.72,2972.00
             877.09,2972.63 877.34,2972.25 876.84,2970.75
             876.34,2969.63 876.47,2968.75 877.09,2968.88
             878.84,2969.25 883.09,2967.25 884.22,2965.38
             884.72,2964.50 885.97,2963.75 886.97,2963.75
             887.85,2963.75 888.85,2963.38 889.10,2962.75
             889.97,2960.75 910.35,2948.75 911.60,2949.50
             912.47,2950.00 912.60,2949.75 912.10,2949.00
             911.35,2947.75 936.35,2930.00 938.85,2930.00
             939.48,2930.00 940.10,2929.50 940.35,2929.00
             941.10,2927.25 955.73,2917.63 958.23,2917.25
             959.60,2917.00 961.48,2916.38 962.23,2915.88
             963.10,2915.38 974.35,2911.25 987.23,2906.88
             1020.48,2895.63 1058.61,2877.38 1078.24,2863.50
             1086.49,2857.63 1094.62,2852.13 1096.37,2851.25
             1098.12,2850.38 1100.99,2848.13 1102.99,2846.38
             1104.87,2844.63 1106.74,2843.25 1107.37,2843.25
             1107.87,2843.38 1109.74,2842.50 1111.49,2841.25
             1113.24,2840.00 1124.00,2833.88 1135.37,2827.75
             1149.50,2820.00 1158.62,2815.88 1164.38,2814.63
             1164.38,2814.63 1172.75,2812.75 1172.75,2812.75
             1172.75,2812.75 1222.88,2762.00 1222.88,2762.00
             1250.38,2734.00 1273.51,2711.38 1274.39,2711.50
             1275.14,2711.75 1278.01,2709.63 1280.76,2706.88
             1286.89,2700.75 1297.51,2693.00 1299.14,2693.50
             1299.76,2693.63 1300.01,2693.38 1299.64,2692.75
             1299.39,2692.25 1302.02,2689.88 1305.52,2687.50
             1309.14,2685.13 1313.64,2681.63 1315.77,2679.75
             1317.77,2677.75 1320.02,2676.25 1320.52,2676.25
             1321.02,2676.25 1323.02,2674.75 1324.89,2673.00
             1326.77,2671.25 1330.02,2669.00 1332.02,2667.88
             1334.14,2666.75 1336.64,2665.00 1337.64,2663.75
             1342.02,2659.00 1382.52,2632.00 1399.53,2622.63
             1416.90,2613.13 1419.15,2612.25 1436.90,2608.00
             1447.28,2605.50 1468.78,2600.13 1484.53,2596.00
             1500.41,2591.88 1514.54,2588.38 1516.16,2588.25
             1517.66,2588.25 1518.91,2587.63 1518.91,2587.13
             1518.91,2586.50 1519.41,2586.38 1520.04,2586.75
             1520.66,2587.25 1522.79,2586.13 1524.79,2584.50
             1526.66,2582.88 1530.79,2580.25 1533.92,2578.75
             1537.04,2577.13 1540.29,2574.88 1541.17,2573.63
             1542.04,2572.25 1543.67,2571.25 1544.67,2571.25
             1545.67,2571.25 1546.17,2570.63 1545.79,2570.00
             1545.42,2569.25 1545.54,2568.75 1546.17,2568.75
             1550.42,2568.75 1547.65,2585.34 1549.27,2586.09
             1548.57,2587.06 1547.79,2615.50 1548.54,2616.63
             1550.29,2619.00 1545.04,2627.50 1545.54,2630.25
             1545.79,2632.13 1533.92,2668.63 1533.54,2670.00
             1533.16,2671.38 1530.66,2706.25 1531.54,2707.63
             1532.41,2709.25 1531.91,2732.50 1533.04,2730.88
             1533.79,2729.88 1533.04,2748.75 1532.16,2748.75
             1531.29,2748.75 1532.16,2756.50 1533.79,2759.75
             1534.42,2760.88 1535.29,2762.88 1535.67,2764.13
             1536.04,2765.38 1536.17,2773.63 1538.42,2775.88
             1539.92,2777.50 1541.42,2794.25 1541.42,2794.88
             1541.42,2795.63 1546.92,2808.75 1547.54,2808.75
             1548.29,2808.75 1551.67,2823.00 1552.04,2823.75
             1552.54,2824.50 1554.42,2828.88 1555.17,2829.38
             1555.79,2829.75 1561.79,2844.63 1562.29,2845.38
             1563.29,2847.00 1563.54,2847.75 1563.79,2850.63
             1563.79,2851.63 1566.42,2859.13 1566.42,2859.50
             1566.42,2861.00 1570.67,2867.63 1570.42,2868.50
             1570.29,2869.50 1579.04,2900.13 1580.80,2901.50
             1582.55,2902.88 1585.67,2915.63 1585.80,2918.13
             1585.92,2920.63 1588.92,2926.38 1588.92,2927.50
             1588.92,2928.63 1589.42,2934.38 1590.80,2935.75
             1591.80,2936.88 1598.92,2958.88 1598.92,2959.25
             1598.92,2961.00 1602.17,2967.13 1604.30,2969.63
             1605.80,2971.25 1606.05,2977.50 1607.17,2977.50
             1608.17,2977.50 1609.30,2984.50 1609.67,2985.50
             1610.05,2986.63 1611.67,2990.50 1612.05,2991.25
             1612.42,2991.88 1614.55,2995.13 1614.30,2996.00
             1613.92,2996.88 1616.42,2999.38 1616.42,3000.63
             1616.42,3001.63 1621.80,3012.38 1623.42,3012.75
             1625.05,3013.13 1625.92,3018.75 1627.05,3018.75
             1627.93,3018.75 1627.30,3021.00 1629.43,3023.13
             1630.30,3024.13 1647.80,3050.13 1648.55,3049.63
             1649.68,3048.88 1654.55,3058.63 1656.68,3059.13
             1658.30,3059.63 1662.93,3064.25 1666.68,3067.88
             1670.30,3071.50 1673.93,3076.75 1673.93,3077.25
             1674.06,3079.25 1680.93,3084.50 1682.56,3085.63
             1683.31,3086.00 1686.06,3090.75 1687.06,3091.63
             1688.43,3093.00 1691.68,3098.63 1691.56,3099.25
             1691.43,3099.88 1694.56,3102.50 1695.18,3102.50
             1695.93,3102.50 1698.93,3106.25 1700.31,3107.63
             1701.56,3108.88 1708.56,3113.25 1708.06,3114.50
             1707.68,3115.50 1710.43,3117.38 1710.81,3118.75
             1711.18,3120.13 1715.18,3122.38 1715.56,3123.88
             1716.18,3126.13 1721.06,3129.50 1722.94,3129.00
             1724.44,3128.63 1727.69,3131.88 1727.19,3133.13
             1726.69,3134.75 1734.69,3140.50 1736.56,3140.88
             1737.81,3141.25 1739.31,3144.88 1739.94,3144.88
             1742.44,3144.50 1750.56,3156.25 1751.31,3156.25
             1752.06,3156.25 1754.94,3158.75 1756.56,3159.13
             1758.06,3159.50 1761.44,3162.13 1761.44,3162.75
             1761.44,3163.25 1766.82,3167.50 1767.69,3167.50
             1768.44,3167.50 1779.07,3175.50 1779.94,3175.25
             1780.69,3175.13 1782.32,3178.25 1783.69,3178.00
             1784.82,3177.63 1795.07,3187.50 1796.94,3187.50
             1798.19,3187.50 1800.32,3188.88 1801.69,3190.63
             1803.57,3193.00 1808.19,3196.13 1809.69,3196.00
             1811.07,3195.75 1815.45,3199.25 1818.95,3201.00
             1822.82,3202.75 1825.20,3207.00 1827.57,3206.75
             1830.07,3206.50 1841.57,3215.00 1842.45,3215.00
             1843.20,3215.00 1847.45,3217.75 1849.57,3218.63
             1851.57,3219.50 1854.32,3219.88 1855.57,3219.50
             1857.07,3219.13 1864.33,3226.13 1864.95,3226.13
             1867.45,3225.75 1877.58,3235.75 1879.83,3234.88
             1881.70,3234.13 1886.33,3239.38 1888.70,3239.00
             1889.45,3238.75 1893.70,3240.50 1893.33,3241.13
             1892.20,3243.13 1899.70,3244.75 1901.20,3246.25
             1902.95,3247.88 1914.96,3251.13 1915.58,3251.25
             1916.08,3251.38 1917.08,3251.75 1917.71,3251.88
             1918.46,3252.00 1919.33,3252.38 1919.96,3252.50
             1920.46,3252.63 1921.33,3252.75 1921.96,3252.63
             1922.58,3252.50 1926.46,3253.63 1926.46,3254.63
             1926.46,3255.38 1928.71,3256.38 1931.46,3256.88
             1934.21,3257.38 1937.46,3259.50 1938.71,3259.13
             1939.96,3258.88 1944.83,3262.50 1945.46,3262.50
             1946.08,3262.50 1961.59,3267.13 1962.34,3267.75
             1963.21,3268.50 1967.84,3268.50 1968.21,3269.38
             1968.59,3270.38 1971.21,3271.63 1973.96,3272.00
             1976.84,3272.50 1979.84,3273.50 1980.59,3274.25
             1981.46,3275.00 1983.21,3276.50 1984.59,3277.50
             1986.59,3278.88 1990.46,3279.88 1992.09,3280.50
             1993.09,3280.88 2000.47,3283.63 2003.09,3281.88
             2006.09,3279.88 2022.22,3286.88 2024.34,3287.13
             2028.84,3287.63 2031.34,3288.25 2032.22,3289.13
             2033.84,3290.75 2046.47,3293.00 2046.47,3293.63
             2046.47,3295.00 2052.85,3294.63 2053.72,3294.63
             2054.47,3294.63 2059.97,3297.25 2064.35,3296.75
             2068.35,3296.38 2071.47,3298.25 2071.47,3298.88
             2071.47,3299.50 2072.10,3300.00 2072.85,3300.00
             2073.47,3300.00 2076.47,3301.13 2081.10,3300.75
             2084.35,3300.38 2110.48,3306.88 2110.85,3307.63
             2111.35,3308.38 2116.60,3306.88 2117.98,3307.63
             2119.23,3308.38 2120.85,3308.50 2121.48,3308.13
             2122.10,3307.75 2130.73,3311.13 2131.23,3310.75
             2131.60,3310.38 2132.35,3311.25 2135.10,3311.25
             2136.48,3311.25 2140.11,3313.75 2141.23,3313.75
             2142.86,3313.75 2148.73,3317.75 2150.48,3316.75
             2151.07,3316.40 2158.70,3318.16 2160.80,3317.94
             2160.92,3317.92 2172.48,3318.13 2175.73,3318.00
             2180.48,3317.75 2184.36,3322.00 2190.36,3321.63
             2190.36,3321.63 2203.74,3322.00 2206.99,3324.38
             2210.24,3326.88 2217.61,3326.00 2218.86,3325.88
             2220.24,3325.88 2234.49,3324.25 2234.24,3325.25
             2234.12,3326.38 2237.99,3326.50 2241.87,3325.13
             2244.37,3324.13 2250.87,3327.50 2251.62,3327.50
             2252.24,3327.50 2272.99,3328.75 2273.99,3328.13
             2274.87,3327.63 2280.75,3328.63 2282.00,3327.63
             2282.87,3326.88 2300.00,3326.75 2301.00,3327.50
             2302.12,3328.63 2316.62,3325.63 2317.75,3325.00
             2318.75,3324.25 2328.50,3322.88 2330.88,3323.75
             2332.25,3324.25 2356.50,3316.88 2356.50,3319.63
             2356.50,3320.75 2362.63,3322.88 2364.25,3321.50
             2365.38,3320.63 2389.26,3318.38 2390.63,3318.00
             2392.26,3317.50 2420.26,3317.13 2420.26,3315.75
             2420.26,3314.25 2451.51,3311.13 2452.39,3309.63
             2453.14,3308.25 2464.27,3307.50 2471.39,3307.88
             2478.39,3308.25 2486.27,3302.75 2488.77,3303.25
             2490.89,3303.75 2501.89,3301.00 2504.27,3301.63
             2506.39,3302.25 2517.90,3299.63 2520.02,3298.25
             2520.90,3297.75 2532.52,3294.38 2532.02,3293.50
             2531.40,3292.50 2541.02,3289.88 2549.40,3289.38
             2552.77,3289.25 2556.15,3288.38 2556.90,3287.63
             2557.65,3286.88 2565.28,3285.75 2565.28,3285.00
             2565.28,3284.38 2572.78,3281.75 2574.03,3282.13
             2575.40,3282.50 2584.65,3279.25 2585.28,3278.50
             2585.65,3278.00 2600.90,3275.75 2599.65,3273.75
             2599.40,3273.25 2629.03,3264.75 2629.03,3263.88
             2629.03,3263.13 2635.16,3261.38 2637.03,3259.88
             2638.91,3258.50 2644.41,3257.88 2644.78,3256.88
             2645.16,3255.88 2653.29,3253.13 2654.41,3251.88
             2655.66,3250.75 2664.29,3248.88 2665.04,3247.13
             2665.29,3246.63 2677.79,3239.88 2678.91,3240.50
             2679.91,3241.13 2688.16,3235.13 2688.91,3235.50
             2689.66,3236.00 2700.67,3228.88 2701.92,3229.25
             2703.04,3229.50 2710.04,3223.38 2712.04,3224.13
             2712.79,3224.50 2718.42,3218.88 2719.04,3220.00
             2719.79,3221.13 2726.92,3213.63 2728.04,3214.75
             2730.17,3216.88 2741.42,3207.38 2742.80,3206.88
             2744.17,3206.38 2753.80,3203.50 2755.30,3200.63
             2756.17,3198.88 2761.92,3196.63 2762.30,3195.63
             2762.80,3194.63 2772.30,3190.13 2773.67,3188.88
             2775.17,3187.50 2785.17,3178.50 2786.42,3179.25
             2786.92,3179.63 2794.68,3172.63 2795.80,3171.38
             2797.05,3170.00 2806.93,3162.00 2809.30,3162.38
             2809.80,3162.38 2819.18,3155.13 2820.18,3154.50
             2821.05,3153.88 2821.43,3152.63 2821.05,3151.63
             2820.55,3150.25 2832.30,3141.38 2831.93,3140.50
             2831.68,3139.63 2841.06,3134.63 2841.31,3133.38
             2841.43,3132.00 2850.56,3126.25 2851.06,3124.75
             2852.06,3121.50 2857.81,3117.88 2857.31,3116.88
             2856.93,3115.75 2860.81,3113.88 2861.56,3112.50
             2862.31,3111.00 2868.93,3107.00 2868.81,3106.38
             2868.56,3105.75 2875.18,3097.50 2876.18,3097.50
             2877.68,3097.50 2883.19,3086.88 2884.81,3085.25
             2886.44,3083.63 2890.56,3076.13 2892.94,3076.88
             2895.06,3077.38 2897.69,3069.00 2897.31,3068.00
             2896.94,3067.00 2908.94,3050.00 2910.69,3050.38
             2911.44,3050.50 2916.06,3041.63 2917.56,3040.50
             2918.94,3039.50 2922.56,3030.75 2923.56,3030.00
             2924.44,3029.13 2931.19,3019.63 2932.19,3018.75
             2933.19,3017.88 2933.82,3016.75 2933.44,3016.25
             2933.19,3015.75 2933.94,3014.38 2935.32,3013.13
             2936.69,3011.88 2942.57,3004.38 2941.57,3001.88
             2940.69,2999.38 2946.07,2995.00 2946.69,2995.00
             2947.32,2995.00 2948.19,2988.88 2948.82,2989.25
             2949.32,2989.50 2956.19,2975.50 2957.19,2974.50
             2958.19,2973.63 2960.32,2970.50 2959.94,2969.50
             2959.57,2968.50 2962.82,2964.88 2962.82,2963.13
             2962.82,2960.13 2968.44,2950.13 2970.82,2947.38
             2972.82,2945.03 2977.68,2930.22 2978.06,2927.39
             2978.08,2927.21 2981.82,2920.75 2982.07,2919.75
             2982.20,2918.88 2985.32,2911.38 2985.32,2910.00
             2985.32,2908.63 2991.57,2900.38 2991.95,2899.38
             2992.45,2898.13 2992.82,2893.88 2992.82,2892.00
             2992.82,2890.25 2995.95,2885.13 2997.45,2884.75
             2998.82,2884.38 3000.82,2878.00 3001.57,2877.75
             3002.20,2877.50 3003.45,2872.50 3004.20,2872.25
             3004.95,2872.00 3010.32,2864.88 3009.07,2862.63
             3007.45,2859.50 3011.95,2857.50 3012.57,2857.50
             3013.20,2857.50 3014.20,2850.75 3014.95,2850.88
             3015.70,2851.00 3016.20,2847.38 3016.95,2845.63
             3017.82,2843.88 3022.20,2838.75 3022.95,2838.75
             3023.70,2838.75 3023.33,2834.00 3024.08,2833.13
             3024.70,2832.25 3028.70,2825.63 3028.20,2824.00
             3027.95,2822.63 3030.58,2811.38 3031.70,2811.88
             3032.95,2812.38 3034.20,2810.13 3035.95,2804.38
             3037.20,2799.88 3036.83,2793.25 3037.20,2792.50
             3037.58,2791.75 3045.70,2777.00 3047.20,2767.13
             3047.58,2764.50 3048.45,2762.75 3049.08,2763.13
             3049.83,2763.50 3052.95,2755.75 3052.33,2753.25
             3051.95,2751.50 3053.08,2743.75 3054.08,2743.75
             3054.95,2743.75 3055.58,2733.75 3056.33,2734.25
             3057.08,2734.75 3056.58,2732.50 3056.58,2730.88
             3056.58,2729.88 3062.08,2711.63 3062.83,2710.63
             3063.70,2709.50 3061.20,2700.38 3061.70,2700.75
             3062.20,2701.00 3062.45,2698.75 3062.20,2695.63
             3061.83,2691.88 3062.33,2689.38 3063.58,2688.25
             3065.58,2686.25 3065.33,2678.50 3064.20,2677.13
             3062.83,2675.38 3064.20,2667.00 3064.70,2666.25
             3065.08,2665.63 3060.95,2652.50 3060.45,2652.50
             3059.33,2652.50 3056.58,2646.63 3056.58,2644.25
             3056.58,2643.25 3055.33,2640.13 3055.33,2638.50
             3055.33,2636.88 3054.83,2635.00 3054.20,2634.38
             3053.58,2633.63 3051.33,2626.25 3050.33,2625.38
             3048.95,2624.25 3046.70,2616.00 3045.20,2615.63
             3043.58,2615.13 3037.08,2608.13 3036.08,2606.75
             3034.70,2604.88 3032.45,2602.38 3033.83,2601.13
             3035.83,2599.00 3031.33,2597.38 3030.33,2595.63
             3029.33,2593.75 3022.83,2590.63 3023.20,2589.38
             3024.08,2587.38 3016.70,2583.25 3017.07,2580.88
             3017.45,2578.50 3014.07,2573.38 3014.07,2572.63
             3014.07,2571.88 3006.57,2568.63 3006.57,2566.88
             3006.57,2565.88 3000.45,2556.38 3000.95,2554.88
             3001.45,2553.38 2998.95,2541.38 3000.07,2539.38
             3001.32,2537.50 2999.45,2528.00 3000.20,2526.38 Z" style="stroke-dasharray: 24423, 24425; stroke-dashoffset: 0;"></path>
</svg>